<svg xmlns="http://www.w3.org/2000/svg" width="32" height="32" viewBox="0 0 32 32" fill="none" stroke="currentColor" stroke-width="1.6">
  <path d="M2.1294411697016358 1.851094967781505 C2.1294411697016358 1.851094967781505, 2.1294411697016358 1.851094967781505, 2.1294411697016358 1.851094967781505 M2.1294411697016358 1.851094967781505 C2.1294411697016358 1.851094967781505, 2.1294411697016358 1.851094967781505, 2.1294411697016358 1.851094967781505 M2.7321351340120814 13.691604637646364 C4.522320093450626 4.608073957569755, 4.958361751726148 4.96420722509703, 12.48723579299436 -0.16566140077152847 M0.7786418303555029 11.65634383096664 C6.123556905016205 10.17078654121873, 6.092467584058102 6.2107121396789235, 9.683716949939589 0.4562655023570954 M-3.150229742190703 24.616823893416303 C8.590730278809174 17.55284678277372, 15.783386719948966 16.25053553059771, 19.8665833998095 2.4816498411776813 M-1.0618381431315984 20.567702075469867 C3.756841681320797 14.872179480867796, 11.521804817186677 9.463161691053713, 15.04013039056172 3.968440441596726 M4.804815242694312 31.07344771833525 C3.3592228337605983 26.803104859990594, 17.906277608120902 9.867277749910572, 19.477436097814973 3.471217931938993 M0.6607940266594226 27.025328498197652 C6.876023181547386 24.66361828095152, 13.556163546956203 17.874664248786697, 24.648462241246637 1.2741875217684373 M12.89657180233428 33.553418748694334 C14.541827063078756 25.82709289336215, 23.601565794692366 20.419629392197884, 26.776888373217798 0.7713784939820192 M11.325444778041335 27.28082910390464 C13.797831125049955 28.740164160332114, 23.880077957764975 16.82345872106717, 29.713103019914843 6.7885892070109275 M17.196285584324134 28.15637184922127 C18.34185960299884 19.51790497974944, 24.145872638838902 15.48272721342842, 35.31629004755593 16.309758910697845 M15.244668352359067 29.640967663568535 C19.085079707711934 27.737227252010314, 25.244928852471173 22.17118864258985, 30.761086141854296 16.862026786965277 M25.59168264386134 28.206815438337017 C25.8591693787584 28.000677968032953, 28.84920330308798 24.384144497379467, 29.667159444250395 26.166565189308756 M24.293518933475777 30.4663514169225 C26.535057755970062 30.326488987427656, 25.87062424208875 26.53739141566125, 31.70648253024392 25.051249182916518 M4.743243032693863 5.084431165456772 C6.576913640275597 5.340829688441754, 11.407855976372957 -3.917846268284321, 27.46049709916115 3.2554736077785495 M-0.07572980225086212 2.846715548634529 C9.604101109132172 3.7915218865275384, 14.672161390632393 1.9685695206522942, 28.14280228316784 4.409010794758797 M34.91745358109474 -3.598186975717545 C32.64771944283247 12.026890609040858, 34.86063429116011 8.929598809033635, 34.44975281357765 27.21806420683861 M30.952568671107294 -0.5576769798994068 C31.366819195210933 6.762704962119461, 28.242119888722897 17.11756261214614, 31.302005907893182 31.127179911732675 M33.36896515488625 29.316991513967515 C27.2585413839668 31.243698414719102, 12.534842466562983 29.50441943064928, 7.876661115884781 28.708724874258042 M26.981034991145133 29.54005756676197 C19.193252843990923 31.059586364519596, 11.495848504453898 30.190900356066226, 5.0046390980482105 30.133901885151865 M-0.30593318343162546 29.099302572011947 C4.668911267483234 17.078520407900214, -0.8748755443453788 14.514665734022854, 3.893761068582535 -1.8594584524631501 M2.6974621266126633 33.19431371986866 C-1.640027843749523 17.72194100655615, -0.020653663909435016 6.747520563751457, 3.4103698223829273 5.161696246266365" />
</svg>
