<svg xmlns="http://www.w3.org/2000/svg" width="32" height="32" viewBox="0 0 32 32" fill="none" stroke="currentColor" stroke-width="1.6">
  <path d="M2.1294411697016358 1.851094967781505 C2.1294411697016358 1.851094967781505, 2.1294411697016358 1.851094967781505, 2.1294411697016358 1.851094967781505 M2.1294411697016358 1.851094967781505 C2.1294411697016358 1.851094967781505, 2.1294411697016358 1.851094967781505, 2.1294411697016358 1.851094967781505 M2.398710291058399 12.38101042046516 C4.641610592598793 6.247061263980347, 6.25425223027495 4.820800179548394, 11.212614794492582 0.9241199199195802 M1.42196363923011 11.363380017125296 C5.093724505936162 9.366826417452115, 6.120876790736726 6.187303592526689, 9.810855372965197 1.235083371483892 M-0.5745500078414523 22.453280666101353 C6.960736970507968 16.761707964999232, 12.330589056026422 14.070346515221903, 18.806564911044735 2.3291786773087773 M0.46964579168810006 20.428719757128135 C5.186138805677993 15.036855703369628, 11.414577025848683 9.633632391018315, 16.393338406420845 3.0725739775182994 M3.370894623802596 30.29125319631205 C5.815534213865432 24.65128787553729, 16.314476405065335 12.47295902977001, 22.516267573192057 2.905365859104024 M1.2988840157851511 28.267193586243252 C7.6806921072392225 23.26647244022503, 14.21120483478488 16.20181111550345, 25.10178064490789 1.8068506540187463 M10.99301970227191 31.98999663801757 C14.788915113690615 24.605877331938203, 22.443104128354765 18.308026963250747, 28.75815196605704 3.146268436985674 M10.207456190125438 28.85370181562272 C13.993851341239225 26.197655813159425, 21.770838517048116 17.092051858193184, 30.22625928940556 6.154873793500128 M17.04715290641142 29.372876324695625 C20.23847582700211 21.941981517795938, 25.756748105853646 16.914723158365792, 32.995774942427644 15.525119263094808 M16.07134429042889 30.11517423186926 C20.14770870622727 26.67239416391252, 25.324449378162413 21.47726386252123, 30.71817298957683 15.801253201228525 M25.149127749324606 29.479501255668094 C26.437511760913356 28.068622238121293, 29.076855868768014 24.943957706867526, 30.139131779976417 25.06318302015149 M24.500045894131826 30.609269244960835 C26.209902781737032 29.9050038141305, 26.484681554328038 27.312186547749683, 31.15879332297318 24.50552501695537 M3.3716215163469316 3.542215582728386 C7.088519758358598 3.7339679013133047, 12.304053864628075 -0.8953700770497324, 28.730248549580573 2.6277368038892748 M0.9621350988745689 2.4233577743172647 C8.900977040454746 3.031147004842758, 14.533933667093518 2.119670821905136, 29.07140114158392 3.2045053973793984 M32.458726790547374 -0.7990934878587725 C31.468655670678615 10.058477592840791, 32.575113094842436 11.554863981157544, 32.22487640678882 28.609032103419302 M30.476284335553647 0.7211615100502966 C30.584690277695657 8.138893048092724, 29.022340624451637 17.07386244013906, 30.65100295394659 30.563589955866338 M31.684482577443124 29.658495756983758 C25.609856021031735 30.31161755110025, 15.228591891378162 29.44197805906534, 4.938330557942391 29.35436243712902 M28.49051749557257 29.770028783380987 C19.333850260451435 30.493898799681666, 10.222371929138898 30.05955579545498, 3.5023195490241052 30.066950942575932 M0.8470334082841873 29.549651286005975 C3.562046020615101 19.523929756507275, 0.7901526147007942 14.226671972125768, 2.9468805342912674 0.07027077376842494 M2.3487310633063316 31.59715685993433 C0.37291934876441957 18.768242751434443, 1.1826064386844637 8.188304778188465, 2.7051849111914636 3.5808481231331823" />
</svg>
