<svg xmlns="http://www.w3.org/2000/svg" width="32" height="32" viewBox="0 0 32 32" fill="none" stroke="currentColor" stroke-width="1.6">
  <path d="M2.1294411697016358 1.851094967781505 C2.1294411697016358 1.851094967781505, 2.1294411697016358 1.851094967781505, 2.1294411697016358 1.851094967781505 M2.1294411697016358 1.851094967781505 C2.1294411697016358 1.851094967781505, 2.1294411697016358 1.851094967781505, 2.1294411697016358 1.851094967781505 M3.065559976965763 11.16219885482757 C3.090362332950311 7.685563355511749, 5.470120567669912 6.8119920723545, 9.921856791496138 2.584557278537363 M2.0553200214808958 11.949307644807982 C5.6757874121168514 7.309555496872452, 7.528160927364109 3.3135930071654776, 9.556578526913981 1.5974476332302987 M0.674090523460046 20.38036712073125 C3.3703210395439114 16.2454663195929, 13.181710617790406 9.016593940399535, 20.92660188857426 2.6341210050465858 M0.6066779220487035 20.7066843938116 C5.308906946555077 16.104304855714588, 11.346971589603843 10.762452873868567, 16.886922374702593 1.6643069056751523 M-0.16126413841397236 31.855642240358453 C5.8017796055795765 25.89556521280194, 10.327731152984331 18.462305608311983, 22.83860462243789 4.037070004773961 M3.222704037533694 28.98346341015206 C4.997253285700949 22.82493490295339, 10.417916442142964 17.932677861600517, 24.195143837585388 0.7415243895181283 M8.40012390239665 28.7168408593711 C12.08207871923938 21.507732629543877, 22.054676989219782 17.55743121189239, 31.195624780378555 4.796488550978365 M9.243433365957232 28.907956392186556 C17.22687699322255 23.532067175277692, 25.497859337974514 12.577421769319562, 29.19994675042412 4.222304620521727 M17.345418262236844 33.33986737374691 C22.297595336968392 23.109083566316144, 27.830620486482477 20.70642943576828, 31.236805152684223 17.094398558300878 M17.617992414289247 29.166761095267812 C22.29077266947759 24.530541267730253, 26.354650920002626 21.654491074363314, 30.803999294131767 14.722800372702029 M26.034237538398074 29.814129621005943 C28.055764564432657 28.135401545969504, 28.37017187926499 27.075316929812157, 29.195187108524372 24.389947358466024 M24.08699197281973 30.323433588884164 C25.414750131269514 29.75211478568411, 26.75727394467671 27.57061747534364, 30.814171737514663 24.156973348877663 M-0.2851354509592059 0.22664674818515773 C6.0655592750757945 0.8019037039399147, 10.512161593884231 -0.28611023114919676, 32.59074564874172 3.883210411667824 M2.086405296623707 3.2700733229517938 C8.302931121364239 3.1478410145282747, 17.20180100128055 3.6134124657154083, 30.414203424751758 2.413516192138195 M30.976180371642112 0.0027195364236831665 C29.260367012035847 8.575432778522375, 32.5797392845273 14.664591943472628, 30.274629220366478 32.22709631025791 M31.428853006660937 1.3634845301508904 C31.754070833086967 6.816679144278169, 30.26702187335491 13.621587320417166, 28.75300886183977 28.49076986759901 M28.65344773232937 28.97548727095127 C21.62956806309521 29.68045265330076, 14.48577567413449 33.47153417719603, 4.4149916738271715 28.06308731138706 M28.6715524867177 29.310086350142956 C20.401550781354306 31.481696399044992, 12.267115787416698 30.17866738636494, 3.3069586470723156 30.200852827727793 M4.941100224852562 28.648953858017922 C1.5405380618453026 21.771789269521832, -0.37514215589761735 16.280015916377305, 4.840641602873802 2.610812321305275 M3.046193189918995 31.59147057980299 C1.5731580462932584 21.904728254303333, 0.8022193160533901 12.5649143345654, 0.9155547335743903 3.5425443693995478" />
</svg>
