<svg xmlns="http://www.w3.org/2000/svg" width="32" height="32" viewBox="0 0 32 32" fill="none" stroke="currentColor" stroke-width="1.6">
  <path d="M2.1294411697016358 1.851094967781505 C2.1294411697016358 1.851094967781505, 2.1294411697016358 1.851094967781505, 2.1294411697016358 1.851094967781505 M2.1294411697016358 1.851094967781505 C2.1294411697016358 1.851094967781505, 2.1294411697016358 1.851094967781505, 2.1294411697016358 1.851094967781505 M4.065834505826809 11.253981506371188 C1.9210270948502846 6.608601436279972, 4.610985391367981 7.242213209000409, 9.90571978700147 3.155213316464037 M2.0453545948570744 12.82819908633201 C6.033820868701456 7.096041200201702, 6.631469566672714 2.678423980651588, 9.175163257837156 1.1809940258499085 M-0.6529486795877064 20.470996802676098 C0.2373734831364791 17.208093436975183, 15.517176128246987 7.74637165058577, 24.106657354868553 3.091534496653298 M-0.7877738824103915 21.123631348836795 C4.22101557348349 17.021065524150277, 11.668654963617826 11.66183010991595, 16.027298327125212 1.1519062979104313 M-2.2595022817388246 34.20222580642805 C4.832845465265079 28.067200170073633, 8.703134762151032 19.161445772645443, 20.122110196306643 5.734626223278867 M4.508434070156508 28.457868146015265 C2.583246508625439 21.700188421221075, 8.452792578656931 17.63505325753849, 22.835188626601635 -0.8564650072327988 M7.710780202583762 27.007107191401396 C9.109289280601104 18.77137931381572, 23.298536701429896 17.492238498733816, 31.651834001860834 4.071818721967402 M9.397399129704924 27.38933825703231 C17.60729105785205 26.019756879876635, 26.394052373322396 13.031807021022388, 27.660477941951967 2.9234508610541248 M17.79281629597498 36.09035394732384 C23.007746664958585 21.0024132832281, 29.39799408543825 21.57600093200763, 31.79835046806909 19.448317501109983 M18.337964600079786 27.74414139036564 C23.722947220078748 23.2905998630751, 27.536150889076072 22.501824745620635, 30.932738750964177 14.705121129912284 M27.361902222008275 28.876072169012716 C29.2007374179678 27.931568735704477, 27.687214182224878 28.275877301347972, 27.779270101346302 24.820093865937825 M23.46741109085159 29.89468010476916 C24.950215053968616 30.10561630655352, 26.355102007958855 27.215278080056283, 31.017239359326886 24.354145846761103 M-2.570270901918412 -1.5467065036296845 C4.530740920826794 -0.7775109346747398, 7.823567929118873 -2.953538804852963, 35.18149129748345 5.766420823335648 M2.1728105932474135 4.5401466459035875 C7.212303327396514 4.737765659582615, 17.616484171897177 5.668908561956882, 30.828406849503516 2.8270323842763903 M31.952360743284224 -1.9945609271526337 C28.906358328497408 8.080671827122572, 35.54510287348032 13.1887964271009, 30.549258440732956 34.454192620515826 M32.857706013321874 0.7269690603017807 C34.100457585632796 5.88811488635838, 31.12635966616869 13.752687836438417, 27.50601772367954 26.98153973519802 M27.306895464658737 27.950974541902543 C20.175624151900408 29.96789524415731, 12.804527399688956 37.55005829194784, 6.829983347654343 26.126174622774123 M27.343104973435402 28.620172700285913 C19.979758531972763 33.17875909355879, 12.887545513361694 30.57270106819868, 4.613917294144631 30.40170565545559 M7.882200449705124 27.297907716035844 C0.9699338024497034 20.83556122370064, -2.861426633036136 17.143997202068565, 7.681283205747604 3.22162464261055 M4.09238637983799 33.18294115960598 C1.2431164687514304 21.965823019668456, -0.2987609917283063 11.442561691254376, -0.16889053285121935 5.0850887387990955" />
</svg>
