<svg xmlns="http://www.w3.org/2000/svg" width="32" height="32" viewBox="0 0 32 32" fill="none" stroke="currentColor" stroke-width="1.6">
  <path d="M2.1294411697016358 1.851094967781505 C2.1294411697016358 1.851094967781505, 2.1294411697016358 1.851094967781505, 2.1294411697016358 1.851094967781505 M2.1294411697016358 1.851094967781505 C2.1294411697016358 1.851094967781505, 2.1294411697016358 1.851094967781505, 2.1294411697016358 1.851094967781505 M1.4789848199194449 10.552793072008775 C4.640470073453833 8.581163068270099, 5.483786606695156 6.063936685750203, 9.276477789997916 3.414775957846254 M2.3719982126062886 11.282271458649324 C4.798009065957742 8.092223029117275, 6.448451526851128 6.459343699554178, 10.389440103888372 1.778629764103502 M1.2984107891107954 19.3439103480462 C7.975113074061883 12.787345496889742, 13.607271398672397 6.489717652988357, 18.786620377339023 -0.4134078310845104 M0.6751939872290051 19.24566671215333 C6.539100816243075 13.226726439352413, 15.656520340308093 6.104257130224383, 17.133714358843466 0.9601733697535786 M4.472656480477744 29.437836762381654 C7.5481170003108335 23.800749392632284, 17.849385730183837 16.023069919979008, 22.999773147060807 1.4029220776089297 M0.9846140484079654 29.34159832210646 C8.225944184789281 23.087211645515588, 15.453495060045302 13.364202257045095, 25.341825433924136 1.8088612572678193 M7.1036760024590215 33.48026297004787 C16.09365531768244 24.353077497841355, 22.99045301098964 12.686008940972705, 32.41436118753931 5.621598607974711 M8.76142195387313 28.935083680468473 C14.513400227876865 27.180356085807123, 18.70139056576302 20.282273183823342, 30.286790480933405 6.456020034032527 M14.294550940149557 28.923362898272554 C23.68217047848832 23.69263459057625, 29.222572063333683 22.60228257446952, 30.35732025781251 14.679038205903913 M18.391316476219426 30.292554526967088 C21.274549917149102 28.244504938106935, 21.80427299608902 23.312884917219993, 29.246912446409237 14.18357395843878 M25.036792432934806 29.981443803674868 C26.137040417565217 29.741052700138095, 29.60897933588639 25.393258041528963, 30.163214772798348 24.05332952762329 M24.600465012163685 30.90051576084583 C26.30502435466285 29.67567027146092, 26.741420688478144 27.69983293914062, 30.641860944785403 23.982697514838808 M4.2864860653877255 4.968862330913543 C8.754079033434392 -0.03692839474678067, 12.816215458512307 0.6457196918010708, 28.120994198322297 1.3109472155570985 M2.6485403954982756 2.0934310972690584 C11.203908161818982 1.9517880193710329, 16.93573466837406 1.5058832876205444, 31.08560456633568 2.0180215895175935 M30.234907162189483 0.4036260485649108 C26.90182268271446 7.833910371363163, 31.327652379369734 16.219455924630164, 29.299505627155305 27.636128413677216 M30.305137342214586 1.6846460402011871 C30.11156111078262 8.95557219237089, 30.262162497806546 15.895449760556222, 31.004011815786363 30.65435982346535 M27.137930309772493 31.833983027935027 C19.639424084126947 32.56487020440102, 14.114367565512657 29.08631223626137, 4.153322231769562 30.617449748516083 M28.762069982290267 30.68011513352394 C22.53540104180574 29.748395198726655, 13.289487716555591 31.211023181819915, 3.2092781960964203 28.667803770303728 M0.5881336331367493 31.398605144023897 C0.5297840824604036 20.095719026029112, 2.2422104588031773 8.506687888503077, 2.5875221371650694 3.8810830950737003 M1.7949242532253264 31.58862743973732 C2.1732773950576783 23.47297100573778, 2.212025754737854 14.753219112753866, 3.220739644765854 3.5233924925327305" />
</svg>
