<svg xmlns="http://www.w3.org/2000/svg" width="32" height="32" viewBox="0 0 32 32" fill="none" stroke="currentColor" stroke-width="1.6">
  <path d="M2.1294411697016358 1.851094967781505 C2.1294411697016358 1.851094967781505, 2.1294411697016358 1.851094967781505, 2.1294411697016358 1.851094967781505 M2.1294411697016358 1.851094967781505 C2.1294411697016358 1.851094967781505, 2.1294411697016358 1.851094967781505, 2.1294411697016358 1.851094967781505 M-0.44101518008055507 12.472793072008777 C7.061673594150456 6.137383697902809, 4.784673571547064 2.7922562180266652, 11.196477789997916 1.494775957846254 M1.4119982126062887 10.322271458649325 C6.078688886858831 8.633413870710216, 8.281968575365408 6.364568060165254, 11.349440103888373 0.8186297641035021 M-1.9015892108892047 22.5439103480462 C4.414051880972826 10.980470109874451, 15.650281424097976 11.998453590591742, 15.586620377339024 -3.613407831084511 M-0.9248060127709952 17.645666712153332 C4.346274685996075 10.93531950997438, 16.727117618573402 3.7398899154155227, 15.533714358843465 2.5601733697535787 M1.2726564804777438 26.23783676238165 C4.632053237403734 24.718198026230134, 16.20253777739269 9.080452783674048, 19.799773147060808 -1.797077922391071 M2.5846140484079654 27.74159832210646 C12.117240765927168 20.464948862284317, 20.75389648801315 12.32094977555864, 26.941825433924137 3.4088612572678194 M10.30367600245902 30.280262970047865 C20.390552967508604 21.263570991543137, 21.380040839398475 15.429727218684903, 29.214361187539314 2.4215986079747105 M10.36142195387313 27.335083680468475 C15.702561091451 27.379960520104376, 25.13706516554368 14.92763287104478, 31.886790480933403 4.856020034032526 M11.094550940149556 32.12336289827255 C21.73984929358909 20.26015913148877, 27.83697952174895 18.529364072718025, 33.55732025781251 11.479038205903914 M16.79131647621943 31.89255452696709 C20.026289503015274 27.09880367601053, 20.435091949013493 22.306286931040887, 27.646912446409235 15.78357395843878 M23.596792432934805 28.541443803674866 C27.986401752481832 31.242907852602173, 31.60465709677516 26.72679540009718, 31.60321477279835 25.493329527623292 M25.320465012163684 31.62051576084583 C25.28618805085061 30.216052646990587, 25.656414770905066 26.876334747858763, 31.361860944785406 24.70269751483881 M1.0864860653877257 1.7688623309135436 C11.953827280551195 4.163259376883507, 16.015711952745914 -1.5540925365686422, 31.320994198322296 -1.8890527844429017 M1.0485403954982757 0.4934310972690581 C8.408202218264343 4.264643773055076, 12.94432278126478 0.6187390413045879, 29.485604566335677 3.6180215895175936 M33.43490716218948 -2.796373951435089 C30.77703888566494 10.053781218081713, 35.202868582320214 11.059197618067264, 32.4995056271553 30.836128413677216 M28.705137342214584 0.08464604020118704 C27.65203839042187 9.12540992423892, 27.802639777445794 17.835125224292277, 29.40401181578636 29.054359823465347 M30.337930309772492 35.03398302793503 C23.717082767933604 37.00579682943821, 12.66968493312597 33.52723886129856, 7.353322231769562 33.81744974851608 M27.16206998229027 32.28011513352394 C22.786505687981844 27.03757272903919, 12.191697008907793 31.700200712132453, 4.80927819609642 27.067803770303726 M3.7881336331367494 34.59860514402389 C2.819422534966469 16.15704081580043, 4.531848911309243 3.8293314680457113, -0.6124778628349308 0.6810830950736999 M0.19492425322532636 33.18862743973732 C-0.19845568749904663 19.843882013112303, 3.0402926721811294 9.095041127502917, 1.620739644765854 5.12339249253273" />
</svg>
