<svg xmlns="http://www.w3.org/2000/svg" width="32" height="32" viewBox="0 0 32 32" fill="none" stroke="currentColor" stroke-width="1.6">
  <path d="M2.1294411697016358 1.851094967781505 C2.1294411697016358 1.851094967781505, 2.1294411697016358 1.851094967781505, 2.1294411697016358 1.851094967781505 M2.1294411697016358 1.851094967781505 C2.1294411697016358 1.851094967781505, 2.1294411697016358 1.851094967781505, 2.1294411697016358 1.851094967781505 M0.812135134012081 11.771604637646364 C5.785986462774552 7.142660976738698, 5.8621863989724305 4.072744792944097, 10.56723579299436 1.7543385992284715 M1.738641830355503 10.696343830966638 C5.384755959026506 8.338190957162285, 7.784518859050417 5.7104482998460835, 10.643716949939588 1.4162655023570956 M0.04977025780929689 21.4168238934163 C5.16552900502594 13.303587142296067, 12.756149836908413 11.543470227810719, 16.6665833998095 -0.7183501588223189 M0.5381618568684017 18.967702075469866 C6.41633267536599 12.159277287007454, 15.724125776552937 4.975436647374133, 16.64013039056172 2.368440441596726 M1.6048152426943119 27.87344771833525 C7.561871608596686 22.556472055367635, 17.436130982264842 10.033723341437037, 22.677436097814976 0.27121793193899224 M2.260794026659423 28.625328498197653 C10.909383006327555 20.32874918278723, 19.246783452687218 11.63333551094803, 26.24846224124664 2.8741875217684374 M9.696571802334281 30.353418748694335 C18.800491712133674 21.051222200235674, 23.378880150124623 13.436604692331056, 29.976888373217797 3.9713784939820194 M9.725444778041334 28.880829103904638 C15.610364167230887 24.86486149421856, 23.63434892751131 14.834736813756372, 31.31310301991484 5.188589207010928 M13.996285584324133 31.35637184922127 C21.62305096852204 22.525532542056045, 27.14869968270485 18.810576297067037, 32.116290047555935 13.109758910697844 M16.84466835235907 31.240967663568536 C19.841516726972365 27.186357834289208, 21.484102227322392 23.135657705377916, 29.161086141854298 15.262026786965277 M24.15168264386134 29.64681543833702 C27.398787614045915 29.674273392289884, 30.315663325389412 26.14189881858433, 31.107159444250392 24.726565189308758 M25.01351893347578 31.186351416922502 C25.66017700513036 29.828559299907305, 26.468828298129463 27.441402011546664, 30.986482530243922 24.331249182916515 M1.5432430326938629 1.8844311654567718 C9.777039516717196 2.8951358026266094, 14.608107729256153 0.03645984590053519, 30.660497099161148 0.05547360777854915 M1.524270197749138 1.246715548634529 C8.601954080909492 3.089494009685516, 14.26786733418703 1.266541643810272, 29.74280228316784 2.809010794758797 M31.71745358109474 -0.39818697571754447 C30.364511341357233 9.316955185681582, 32.57742618968487 13.109727962315082, 31.24975281357765 30.418064206838608 M29.352568671107292 1.0423230201005935 C28.94218055539131 10.277786096185446, 29.017481248903273 19.34772488027811, 29.70200590789318 29.527179911732674 M30.168965154886244 32.51699151396751 C23.619712042063473 33.19603510220051, 14.857183782756326 31.456756118130684, 4.676661115884781 31.90872487425804 M28.581034991145135 31.14005756676197 C21.46770052090287 28.76059759936333, 11.244743858277797 31.09191159090996, 3.40463909804821 28.533901885151863 M2.8940668165683747 32.299302572011946 C2.5512920412302016 17.847859513014555, 3.407505229401589 6.453343944251538, 0.6937610685825346 1.34054154753685 M1.0974621266126632 31.59431371986866 C0.973038697528839 20.33648550286889, 2.5924128773689272 10.376609556376932, 1.810369822382927 3.561696246266365" />
</svg>
