<svg xmlns="http://www.w3.org/2000/svg" width="32" height="32" viewBox="0 0 32 32" fill="none" stroke="currentColor" stroke-width="1.6">
  <path d="M2.1294411697016358 1.851094967781505 C2.1294411697016358 1.851094967781505, 2.1294411697016358 1.851094967781505, 2.1294411697016358 1.851094967781505 M2.1294411697016358 1.851094967781505 C2.1294411697016358 1.851094967781505, 2.1294411697016358 1.851094967781505, 2.1294411697016358 1.851094967781505 M0.8926841917341728 10.0351699407336 C5.677576206533402 8.137911176613027, 5.654492822172185 5.070262201930044, 8.614961784005025 4.8156506750818195 M2.6787109771078605 11.494126714014696 C5.631606791950152 7.369971522227839, 6.8890828298088715 6.454885886207224, 10.84088641178594 1.5433582875963152 M0.5956918517137921 18.398083257305995 C8.860695085300131 10.635716764075916, 15.384070832395995 3.494289710579804, 19.826694332398077 -3.003523175608894 M-0.6507417520497882 18.20159598552026 C4.810448578158768 13.084205553256865, 16.873967765004547 5.938558334277761, 16.520882295406956 -0.25636077393271606 M7.008338956044608 29.366614850474456 C6.105675868908214 25.982293336313173, 19.79939493142282 18.37462080640892, 20.444447245552478 0.46633036894880386 M0.03225409190505091 29.17413796992407 C7.824464093005222 23.90151900255387, 15.650525519713877 12.081338784310427, 25.12855181927913 1.2782087282665835 M5.117884402708502 36.53395141275493 C14.958015185030952 27.00785741199671, 21.077011746136005 12.502336325220837, 34.08930681618235 5.722038835960093 M8.433376305536719 27.443592833596146 C15.182031432915748 29.64063646911919, 18.991060398426416 21.098147629940584, 29.83416540297053 7.390881688075724 M11.691081651800406 27.257344996375124 C26.405736355548832 21.74466743496744, 33.08910096834829 24.622637791297233, 30.039380678325664 14.617596796316054 M19.884612723940144 29.99572825376419 C22.534064696161337 29.052176287075312, 20.596221666397646 22.636923034071668, 27.818565055519116 13.626668301385786 M25.36701201108174 29.210700534350565 C25.567969791691233 31.173798620273697, 30.44266797591206 24.858528204065685, 29.715325429894257 24.146858204252357 M24.494357169539498 31.048844448692492 C26.581345348849165 29.995179966116453, 26.140892536775176 27.5542214122538, 30.67261777386837 24.005594178683396 M6.572972130775452 7.937724661827088 C9.90765456110239 -1.9550812462329867, 12.43142390549183 -0.5897850731372838, 26.241988396644594 0.6218944311141967 M3.2970807909965516 2.1868621945381164 C12.416404436528683 1.4476875461101535, 15.888645562529565 0.5558780826091769, 32.17120913267136 2.036043179035187 M30.469814324378966 -1.1927479028701784 C23.272477771329882 6.107562436163425, 32.12413716464043 15.31839523613453, 28.599011254310607 25.272256827354433 M30.610274684429168 1.3692920804023743 C30.385676780843735 8.25081984847784, 30.686879554891586 14.470250448584556, 32.008023631572726 31.308719646930694 M24.275860619544982 33.66796605587005 C16.63416553586721 35.72999365887642, 12.939369866251944 28.77287772259712, 6.306644463539124 31.234899497032167 M27.524139964580534 31.360230267047882 C23.573011375963684 29.156745458078387, 13.583394017815586 32.08200142426491, 4.418556392192841 27.33560754060745 M-0.8237327337265015 32.79721028804779 C-0.8795549300670626 19.914081631600858, 2.545297822618484 6.458662936091425, 3.1750442743301392 5.762166190147401 M1.5898485064506531 33.17725487947464 C2.684688625001907 24.08776402622461, 2.762185344362259 13.790082255005835, 4.441479289531708 5.046784985065461" />
</svg>
