<svg xmlns="http://www.w3.org/2000/svg" width="32" height="32" viewBox="0 0 32 32" fill="none" stroke="currentColor" stroke-width="1.6">
  <path d="M2.1294411697016358 1.851094967781505 C2.1294411697016358 1.851094967781505, 2.1294411697016358 1.851094967781505, 2.1294411697016358 1.851094967781505 M2.1294411697016358 1.851094967781505 C2.1294411697016358 1.851094967781505, 2.1294411697016358 1.851094967781505, 2.1294411697016358 1.851094967781505 M2.197502446145393 11.237128624760794 C5.333726708667949 7.8997377733763114, 6.523903155407842 4.273683622521539, 10.033985122263292 2.6512117398615778 M1.7697473059302349 10.74875529884665 C4.144536373943331 9.314494181540626, 6.206417825069013 6.582461641780191, 9.841119408279518 1.950332029097885 M0.9180179649974263 19.001897571611778 C6.604945961940087 16.97009766724397, 9.126235884269038 13.917044135147375, 18.59788428578486 2.706716757822255 M2.7025205047811425 19.523995471376555 C6.871311345190045 13.994134917899695, 11.82735296826118 9.242184812083647, 17.970534394271272 1.5001035055103098 M3.180700402961665 30.226018983734708 C10.776808506266255 18.51801393402044, 20.280717934517472 10.869939002354052, 24.66350120688909 0.8200980485805138 M1.4842898043557937 29.190013679725983 C8.864503092175127 20.60652515208366, 17.387719018785113 12.050039776707155, 26.09216215769881 2.1128545844384297 M9.572228509919139 31.37835057737199 C15.661274682372593 23.42409292585322, 21.410722205907245 17.484380251062863, 31.94154125275395 4.530526583569708 M8.302721087620945 30.985568821298752 C13.257176871621898 24.414675871652474, 19.726169582734027 19.944044053858402, 30.128194399646734 5.26458024524397 M15.840459261589777 30.66394713912634 C20.89779650044515 24.262225117128477, 24.76887662849403 19.022694329723016, 29.755278073042405 15.900737168055917 M16.48948480685903 30.176042831135074 C21.128011698750104 25.00767345578151, 26.21092344208366 20.355942454276306, 30.864624496340525 14.76193619163051 M24.80006959770696 30.973464520267537 C26.199725534641004 27.991120325482637, 28.9820913884597 25.678425374092043, 30.348372538022925 23.723814683131213 M25.05461571150349 30.648923592671146 C26.89480673432125 28.328558020160227, 29.52866353865699 25.30077782675385, 30.351575078487624 24.233645454629595 M2.685810758173466 2.771107791364193 C7.344322817400098 2.8987604792028665, 12.752152808755636 0.5840914900213479, 29.365124274790286 2.3138684019446374 M1.4810675494372845 2.2116788871586324 C8.549415006116034 2.5832665332108737, 14.46481980532408 2.1275284417420623, 29.53570057079196 2.602252698689699 M31.229363395273687 0.6004532560706137 C30.806725809970498 9.07427108474076, 31.35995452205241 12.867496567219497, 31.11243820339441 29.30451605170965 M30.23814216777682 1.3605807550251483 C30.242985478892923 8.826987091079356, 29.461810652270913 17.052012354135517, 30.325501476973294 30.281794977933167 M30.84224128872156 29.829247878491877 C24.785513339564204 30.00069294742048, 16.57546660378575 29.565873201403022, 3.4691652789711953 29.67718121856451 M29.245258747786284 29.885014391690493 C19.404148968681692 30.229002208551766, 9.5856336414814 30.011830706438424, 2.7511597745120526 30.033475471287964 M1.4235167041420937 29.774825643002988 C2.8948182037442924 20.746634430810808, 1.508871500787139 14.082675091177224, 2.4734402671456337 1.0351353868842126 M2.174365531653166 30.798578429967165 C1.2829263097018002 19.29139362387359, 1.6877698546618223 8.908696885406968, 2.352592455595732 2.790424061566591" />
</svg>
