<svg xmlns="http://www.w3.org/2000/svg" width="32" height="32" viewBox="0 0 32 32" fill="none" stroke="currentColor" stroke-width="1.6">
  <path d="M2.1294411697016358 1.851094967781505 C2.1294411697016358 1.851094967781505, 2.1294411697016358 1.851094967781505, 2.1294411697016358 1.851094967781505 M2.1294411697016358 1.851094967781505 C2.1294411697016358 1.851094967781505, 2.1294411697016358 1.851094967781505, 2.1294411697016358 1.851094967781505 M2.4619364422267456 11.570553467714475 C3.753875519067482 8.715418550203319, 4.866238180978296 7.002468067777613, 10.225967774808268 2.005832738363355 M2.13867102158127 11.065433489972042 C5.0525219188841834 8.377081789626951, 7.129082933106796 4.763590155414953, 9.647370632856944 1.8231936060722767 M1.951794441976682 19.626217837262526 C6.111545819331916 14.199681427305066, 10.577248908009896 12.285732801153896, 17.100560012794634 3.7667352465870176 M2.5053020613278307 19.592511536556856 C7.164424565091231 13.870747831334189, 12.585299416841334 8.882715469093965, 18.418510338253874 1.7468954896511826 M2.4681531990632353 28.459939602626424 C9.56197747405039 21.47156036389946, 15.979205723877428 13.862971479316137, 26.080305523528992 0.9812665732034311 M2.1789214032456217 30.151923690600256 C10.148686240508667 19.103185040485165, 18.347458994143665 9.73545584716752, 25.56628837595814 1.6595361807771787 M10.537750325338337 30.08190267743436 C12.61492006868666 24.119899994174045, 16.873293865278576 21.244011658213857, 31.14579264046929 5.749262990730467 M8.329228058443757 30.50355740921465 C14.253675566921583 23.710565602101518, 21.800674517583268 17.060836607659898, 30.505752081147648 4.751423975753251 M16.925337327771913 30.813079817039053 C21.253065050565905 27.487034698788037, 21.844513747672032 24.44756328431422, 31.115314544528495 15.021252273184206 M17.272413963579666 30.949366893065253 C21.3216508739725 25.10790456143005, 26.704042338692787 19.06205226772137, 31.243353814422857 14.804849343907978 M24.987063083545134 31.41601941480427 C25.97848061130207 29.342895808053534, 28.1619531640265 26.398719931485708, 31.262909382663896 23.25184234740519 M25.03070142493473 30.4423966320151 C26.47157475896989 28.195208892086296, 28.929520163245453 25.98577728947112, 30.552517004057993 24.061334661900336 M0.857432274520397 1.113323374092579 C6.832968452200294 1.4962814376085998, 11.856458426266911 0.952274470064044, 31.29537282437086 2.9416052058339117 M2.0432026483118535 2.6350366614758967 C8.8482450183481 2.463399599632621, 16.994459415972237 2.6961853252261876, 30.20710171237588 2.2067580960690973 M30.488090185821058 1.0013597682118416 C29.533777429911495 8.822813254222275, 31.193463566157224 15.402489701658492, 30.13731461018324 31.113548155128957 M30.71442650333047 1.6817422650754452 C30.728956436678768 7.280961273238063, 29.98543195681274 13.55603706240654, 29.376504430919887 29.245384933799507 M29.326723866164684 29.487743635475635 C22.356540018692613 29.688478842261436, 15.326399811357257 31.584019604209068, 3.2074958369135858 29.031543655693532 M29.33577624335885 29.655043175071476 C20.61244690604508 30.687006625655293, 11.956900924444199 30.03549211931527, 2.653479323536158 30.100426413863897 M3.470550112426281 29.32447692900896 C1.7980546112328768 22.239903292432427, 0.8402145023614169 15.848025273531674, 3.420320801436901 2.3054061606526375 M2.5230965949594975 30.795735289901494 C1.7623789291054008 21.874180871620773, 1.3769095639854667 13.12609065622091, 1.4577773667871952 2.771272184699774" />
</svg>
