<svg xmlns="http://www.w3.org/2000/svg" width="32" height="32" viewBox="0 0 32 32" fill="none" stroke="currentColor" stroke-width="1.6">
  <path d="M2.1294411697016358 1.851094967781505 C2.1294411697016358 1.851094967781505, 2.1294411697016358 1.851094967781505, 2.1294411697016358 1.851094967781505 M2.1294411697016358 1.851094967781505 C2.1294411697016358 1.851094967781505, 2.1294411697016358 1.851094967781505, 2.1294411697016358 1.851094967781505 M1.6341534402674216 10.777265889191318 C4.538491593844467 8.360130279578492, 7.186489032917957 4.83242863883267, 9.361959101080755 1.6831432376142441 M2.3231328794067876 11.22377258553474 C5.1279476589365505 7.996549927166439, 7.691848454707628 4.422328745728658, 10.030496245145658 2.2396243945594727 M2.46868268046631 19.938377970087902 C5.864845748027827 16.014473307335617, 9.70275541988032 11.470077134157158, 16.35189787629952 2.696744490969399 M2.406692839601175 19.626769569147008 C4.835006537882667 15.532182947089767, 8.913756334395034 13.037412449172109, 17.842498310245176 1.8702914817216192 M2.11187959711402 30.77689991207228 C7.20241250656955 22.816072078594484, 13.676300167184502 18.42722621755269, 26.78870768184894 1.0618508355148897 M2.5262372026905355 29.03287869603739 C8.276815858936697 22.000730973732377, 15.551554521718376 14.944334360246144, 25.30335148508781 2.2328769789465532 M9.420511233047934 29.433678727465544 C16.3172672270872 23.577261913599305, 21.995098955876422 16.542744132319058, 30.747918334326958 6.3586311943108464 M8.342481543855163 30.262551703172598 C15.030865575421759 23.358510467326045, 23.11686764585822 15.619232884560644, 30.694530921898103 5.294845841007891 M17.46777636086298 29.287646155995407 C20.986147247386413 26.00681179449146, 25.893228150781297 20.897589829547826, 31.79533278027154 14.58150982574835 M17.663878541939987 31.336028924030344 C20.929500347337843 26.588605149103575, 25.883907711871423 20.630582327760973, 30.632718473464024 14.026305920046713 M24.360559826464222 30.91729686207264 C25.867858149632603 28.611848924400103, 28.471884051809905 27.51193258524366, 30.28017780498438 23.73585617954218 M25.01874428165035 30.699133151687075 C26.619958771294208 28.81546895298821, 28.629948475539685 26.295211645768635, 30.652987966843178 23.975179265535708 M3.1432430326938627 3.4844311654567717 C8.177291269600392 0.951841916811466, 13.008611235022546 1.2931659600853918, 29.060497099161147 1.6554736077785492 M2.324270197749138 2.046715548634529 C10.59766002446413 2.0898661328434947, 17.45927922129631 1.8669137669682503, 30.542802283167838 2.0090107947587965 M30.117453581094743 1.2018130242824554 C28.58370323988199 8.697084338963032, 30.79661808820963 16.669986268877985, 29.649752813577653 28.818064206838606 M30.152568671107293 1.8423230201005936 C30.01514191557169 9.307948364317417, 30.090442609083652 16.608049416542052, 30.50200590789318 30.327179911732674 M28.568965154886246 30.916991513967513 C21.142053358256817 31.132371789681912, 14.701866415143012 29.39309280561209, 3.076661115884781 30.30872487425804 M29.381034991145135 30.34005756676197 C22.01659587472677 29.959208834207057, 13.142534565925594 30.69052282575369, 2.60463909804821 29.333901885151864 M1.2940668165683746 30.69930257201195 C1.2496728149771692 20.18653772324324, 2.105886003148556 9.530700364708903, 2.2937610685825347 2.94054154753685 M1.8974621266126632 30.79431371986866 C2.0021052388072014 23.16557449549436, 2.021479418647289 15.234787541627881, 2.610369822382927 2.7616962462663652" />
</svg>
