<svg xmlns="http://www.w3.org/2000/svg" width="32" height="32" viewBox="0 0 32 32" fill="none" stroke="currentColor" stroke-width="1.6">
  <path d="M2.1294411697016358 1.851094967781505 C2.1294411697016358 1.851094967781505, 2.1294411697016358 1.851094967781505, 2.1294411697016358 1.851094967781505 M2.1294411697016358 1.851094967781505 C2.1294411697016358 1.851094967781505, 2.1294411697016358 1.851094967781505, 2.1294411697016358 1.851094967781505 M1.3697194441860692 10.443841046237635 C4.543801113867715 9.267578161789816, 5.695070668193068 5.638075845149578, 9.16997644853578 2.3285222391124667 M1.9542091637557524 10.907094394409347 C4.118529146413758 8.845787985583788, 6.667750379087906 6.153025898597571, 10.224245020568231 2.366762817585081 M1.434906203487054 19.314057704437154 C6.3582458906360015 15.584889547274518, 8.251742396139466 13.101388468150637, 17.849222149289748 1.636726002204636 M2.6039112830544866 19.558253503966704 C4.54189331798148 15.655570033655271, 8.15580988581488 13.396881792161789, 17.394522366262574 1.6234994975807462 M2.82442680101245 29.342979293180566 C8.417243538785412 19.862525648715465, 17.97781237782454 12.234193740590609, 25.37190336520904 0.9006823108919724 M1.8316056038007076 29.67096868516312 C6.992632710603159 23.504071085330875, 12.991814546359825 17.25891828978578, 25.829225266828473 2.686195382607804 M8.454989417628736 30.730126627403173 C16.163621840773132 22.881454845278483, 23.33252729650509 12.783112725168063, 31.54366694661162 5.139894787150087 M8.315974573032351 30.744563115256703 C13.75542621927174 24.062620736876994, 20.76342205015865 18.50244033075915, 30.316973240397193 5.8080021104986095 M16.382898294680846 29.138513478082697 C21.075430775505527 25.951782449767542, 23.306695188083033 21.812281348827902, 30.43529630878545 15.460994720620063 M16.880949385219346 30.562704862100162 C20.735861172115438 26.6426791270736, 23.790788815262292 22.07877759793448, 30.25398915538169 13.983392767769244 M24.173566340626046 30.474741967535905 C26.089103072971536 28.700073441829208, 29.292022276243102 26.79163802785, 30.80564096034341 24.2078285152682 M25.04265856821911 30.905660112343124 C27.043190746645568 28.22881808106214, 29.229091850951225 25.610212183051363, 30.45204604127281 24.147490058264964 M1.7716215163469315 1.942215582728386 C8.688645634800196 2.354320958405733, 13.904305617511273 0.9249829800426959, 30.330248549580574 1.0277368038892747 M1.762135098874569 1.6233577743172645 C8.698830012232065 2.5233330664217473, 14.929639610648154 1.6118568834841251, 29.87140114158392 2.404505397379398 M30.858726790547372 0.8009065121412278 C30.170251619940995 8.948542169481517, 31.276709044104816 14.134993134438991, 30.624876406788825 30.209032103419304 M29.676284335553646 1.5211615100502969 C29.529170957785844 10.853974182158709, 29.566821304541826 20.104024708271027, 29.85100295394659 29.763589955866337 M30.084482577443122 31.258495756983756 C23.57102667912841 31.444585894840955, 15.950933207571504 30.57494640280604, 3.3383305579423905 30.95436243712902 M29.290517495572566 30.570028783380984 C20.808297937363385 29.50120441710353, 10.771267282962798 30.666861412876845, 2.702319549024105 29.26695094257593 M2.447033408284187 31.149651286005973 C2.346436407488585 18.69326886162162, 2.774543001574278 7.76535018235445, 1.3468805342912673 1.670270773768425 M1.5487310633063316 30.79715685993433 C1.5226526194036007 20.58278724774718, 2.332339709323645 11.01739377081394, 1.9051849111914634 2.7808481231331825" />
</svg>
