<svg xmlns="http://www.w3.org/2000/svg" width="32" height="32" viewBox="0 0 32 32" fill="none" stroke="currentColor" stroke-width="1.6">
  <path d="M2.1294411697016358 1.851094967781505 C2.1294411697016358 1.851094967781505, 2.1294411697016358 1.851094967781505, 2.1294411697016358 1.851094967781505 M2.1294411697016358 1.851094967781505 C2.1294411697016358 1.851094967781505, 2.1294411697016358 1.851094967781505, 2.1294411697016358 1.851094967781505 M1.6988475554889222 10.746901746236967 C4.285269872554664 8.762939170195068, 5.453486374896938 6.452121259736328, 9.52454629224525 2.889447938882917 M2.2569809259181994 11.202825737887311 C4.513751220723835 8.34445939930596, 6.3115560902552215 6.4424074346644336, 10.220147738426784 1.866856567793697 M1.5619303906346715 19.698595507073776 C7.574768663131515 13.573961277454531, 12.87272045431002 7.5927581371511685, 18.39659264419188 0.5578854231121335 M1.1724198894585527 19.637193234640733 C7.168625081740965 13.24505009047175, 15.1812572322632 6.131272497537873, 17.363526382632156 1.4163736736359391 M3.52177555214017 29.46454497934685 C8.060596299135334 22.971310322846357, 17.089696154267738 15.129878246662198, 23.958020360126433 1.7541439683564768 M1.3417490320965584 29.404395954174856 C8.364436550878843 22.70530128123791, 15.367545969340123 13.768730953932275, 25.421803039416012 2.007855955643283 M7.848347852365466 32.33512980403272 C16.428136095127364 23.337825567240728, 23.61660921301037 12.735176709087288, 31.786256576798177 5.5839335224801925 M8.884439071999283 29.4943927480456 C14.22566626145095 26.34669809314768, 18.555767113977915 20.065267417611956, 30.456524885169483 6.105446913766327 M15.270851923280489 29.54811961148409 C22.727001060726057 24.401535690355594, 27.838791510088626 21.82306278458517, 30.476547600120078 14.702078734499361 M17.831330383324158 30.403864379418174 C20.778714322484856 27.8835954080451, 22.233774692188632 23.50833784920192, 29.78254271799303 14.392413579833653 M24.912960091129705 30.27047252967148 C26.364121475508533 29.216258253513146, 29.310025669117334 25.606267004003595, 30.331173276387382 24.018256273887392 M24.640255453147756 30.844892502903335 C26.199658708881824 29.533325818814635, 26.964873472405593 27.731908944572723, 30.63032713387929 23.97411126589709 M3.4290537908673286 3.855538956820965 C8.321488210558892 0.7057098348438742, 12.960512290894986 1.1323648889362814, 28.825621373951435 1.5693420097231865 M2.4053377471864223 2.0583944357931614 C10.749222058802843 2.0512761715054513, 17.328393083065748 1.772585714161396, 30.6785028539598 2.011263493448496 M30.146816976368427 1.0022662803530693 C28.158490532785653 8.481290847063065, 30.9246340931952 16.55735368281603, 29.562191016972065 28.52258025854826 M30.190710838884115 1.802903775125742 C30.040698094367983 9.219854321330786, 30.134823961257936 16.429899502545595, 30.627507384866476 30.408974889665842 M28.211206443607807 31.146239392459393 C20.76639603972435 31.49585579738021, 14.554991702735423 29.32175706729293, 3.345826394855976 30.38590609282255 M29.226293738931417 30.425071958452463 C22.146297166496513 29.903469309806823, 13.179272853583093 30.81761179924011, 2.7557988725602627 29.16737735643983 M1.1175835207104683 30.874128215014935 C1.070244175642729 20.163833048939708, 2.1405106608569624 9.274697245657446, 2.3672013357281685 3.1756769344210625 M1.871827658265829 30.992892149835825 C2.047917329967022 23.242423623055217, 2.072135054767132 15.114395434409378, 2.7629622779786587 2.9521203078329563" />
</svg>
