<svg xmlns="http://www.w3.org/2000/svg" width="32" height="32" viewBox="0 0 32 32" fill="none" stroke="currentColor" stroke-width="1.6">
  <path d="M2.1294411697016358 1.851094967781505 C2.1294411697016358 1.851094967781505, 2.1294411697016358 1.851094967781505, 2.1294411697016358 1.851094967781505 M2.1294411697016358 1.851094967781505 C2.1294411697016358 1.851094967781505, 2.1294411697016358 1.851094967781505, 2.1294411697016358 1.851094967781505 M2.2736759749507685 11.889537589022206 C4.704735345989714 6.856910685340037, 6.758601975941109 4.762251718923372, 10.734631920054415 1.3327879151787458 M1.6632093175580878 11.253518586934792 C4.724584848243397 9.086669322363946, 6.148577735203462 6.1998533386689125, 9.8585322815998 1.527140072406441 M0.3913298925395168 21.641951955858246 C6.392199689469653 16.511929534869743, 11.078500141630107 13.299674260991925, 18.40905797775795 2.2720019908579383 M1.043952267245487 20.376601387749986 C5.737369479283892 15.037868991420144, 11.389610856068884 9.636818608117368, 16.90079141236802 2.7366240534888897 M2.8331743917182024 29.99793025055335 C6.759428449418696 23.763576670996827, 15.74032842193345 13.369309674346828, 23.655829376458463 2.6931713317909107 M1.5381677617072995 28.73289299426035 C7.949540787914474 22.80134628624959, 14.423943151261447 15.633294726819223, 25.271775046280858 2.0065993286126123 M10.279187664748521 31.403713346513783 C14.94091493788148 24.119179187953772, 22.068022808689577 17.487433743945118, 29.501125813371754 4.036852165612045 M9.788210469656976 29.443529082517003 C14.140297479462378 25.337896798997377, 21.052812283931466 17.28645590064315, 30.41869289046458 5.917230513433578 M16.991228152194154 29.82906550299851 C20.948815066234044 22.89107846437893, 26.35993456121488 17.491789882532856, 32.12558177800454 15.23087939524367 M16.38134776720507 30.29300169498203 C20.522881401233715 26.30403845303522, 25.330956395859822 21.24799876715487, 30.702080557472776 15.403463106577243 M24.98316966387333 29.95675843716725 C26.650338422687398 28.090727673373895, 29.158173849363966 25.150513994395023, 30.316121405873673 24.649414706717515 M24.57749350437784 30.662863430475213 C26.095004973003558 29.721829841695435, 26.721988353021686 27.577617689834213, 30.953409870246652 24.30087845471994 M2.857263447716832 2.963884739205241 C7.280372052639723 3.1064274587109684, 12.640128072723746 0.21309122223407018, 29.20640534348786 2.3923355024307966 M1.3513344367966056 2.2645986089482903 C8.637305514700712 2.692819042876363, 14.48209827076644 2.123146428540349, 29.41962571348995 2.752815873362124 M31.536704244092107 0.2505665700882673 C30.969622633196412 9.320322711765767, 31.6611585232988 12.53933842070401, 31.390547754243016 29.130645064637065 M30.29767770972103 1.2007259437814355 C30.330174523591996 8.654963580332698, 29.353705990314484 17.0574748756364, 30.40687684621662 30.35224372241646 M31.052801610901952 29.786559848114848 C24.991599009931086 30.08396394934505, 16.238747925683853 29.54043926682323, 3.836456598713994 29.596476523205638 M29.056573434732854 29.856267989613116 C19.38657429162413 30.295867327451706, 9.744818213395774 30.024402949810028, 2.9389497181400657 30.041844339109957 M1.279395880177617 29.718532053753734 C3.057561043910682 20.440958262234926, 1.3251276652142405 14.11867431141436, 2.591800333932042 0.7939192336052656 M2.2179569145664573 30.998223037458956 C1.0519793324917555 19.160605905763802, 1.558033763691783 8.728598858602343, 2.4407405694946647 2.988030076958239" />
</svg>
