<svg xmlns="http://www.w3.org/2000/svg" width="32" height="32" viewBox="0 0 32 32" fill="none" stroke="currentColor" stroke-width="1.6">
  <path d="M2.1294411697016358 1.851094967781505 C2.1294411697016358 1.851094967781505, 2.1294411697016358 1.851094967781505, 2.1294411697016358 1.851094967781505 M2.1294411697016358 1.851094967781505 C2.1294411697016358 1.851094967781505, 2.1294411697016358 1.851094967781505, 2.1294411697016358 1.851094967781505 M0.498847555488922 11.946901746236968 C6.107417636594475 6.870806700958891, 5.5953175830920365 3.732087693143904, 10.724546292245249 1.689447938882917 M1.6569809259181993 10.60282573788731 C5.562946748911981 8.405438151616421, 7.913588846056557 5.867419705993029, 10.820147738426785 1.2668565677936972 M-0.43806960936532846 21.698595507073776 C4.972977197894503 12.702748177236614, 13.475000207587644 11.637156361551927, 16.39659264419188 -1.4421145768878665 M0.1724198894585527 18.637193234640733 C5.939079946164296 11.895997553278775, 16.015135505198835 4.709259674914071, 16.363526382632156 2.416373673635939 M1.52177555214017 27.46454497934685 C6.889955157008853 23.144063483077765, 17.18827082225721 9.842565636990798, 21.958020360126433 -0.2458560316435232 M2.3417490320965584 28.404395954174856 C11.167376993381984 20.351600384332684, 19.579591258673226 11.794040358771863, 26.421803039416012 3.007855955643283 M9.848347852365466 30.335129804032718 C19.19056175194374 21.07340245379193, 22.871725048409417 13.903978379648905, 29.786256576798177 3.5839335224801925 M9.884439071999283 28.4943927480456 C15.603718893803729 25.418278873470555, 23.98033348253722 14.782603450859018, 31.456524885169483 5.105446913766327 M13.270851923280489 31.54811961148409 C21.59665388787371 21.943221033216822, 27.265172980550783 18.72430508478238, 32.47654760012008 12.702078734499361 M16.831330383324158 31.403864379418174 C19.86880271579667 27.16341094377771, 21.202942452558744 22.92725666085183, 28.78254271799303 15.392413579833653 M24.012960091129706 29.37047252967148 C27.527868664402323 30.05069623924226, 30.62008928398328 26.272387195836846, 31.23117327638738 24.91825627388739 M25.090255453147755 31.294892502903334 C25.579620037062327 29.945276922691143, 26.278665186825265 27.319979481637702, 31.080327133879294 24.42411126589709 M1.4290537908673286 1.8555389568209648 C10.321236457675695 3.1522222328931093, 14.960008785128593 -0.42112271301448345, 30.825621373951435 -0.4306579902768135 M1.4053377471864223 1.0583944357931614 C8.553516115248204 3.3695153472572565, 13.936981195956468 1.0908248899132014, 29.6785028539598 3.011263493448496 M32.14681697636843 -0.9977337196469307 C30.45992633767426 9.501161693781615, 33.22606989808381 12.597095376253128, 31.562191016972065 30.52258025854826 M29.190710838884115 0.802903775125742 C28.65698259420693 9.989692053198814, 28.751108461096884 18.96957496628165, 29.627507384866476 29.408974889665842 M30.211206443607807 33.14623939245939 C23.644054723531006 34.04984089784324, 14.310309070348737 31.875742167755963, 5.345826394855976 32.38590609282255 M28.226293738931417 31.425071958452463 C21.797401812672614 28.407566421553494, 11.481482145935296 31.321708910986782, 3.7557988725602627 28.16737735643983 M3.1175835207104683 32.874128215014935 C2.663832770511508 17.425154838711023, 3.7340992557257415 5.797340825200081, 0.3672013357281685 1.1756769344210625 M0.8718276582658291 31.992892149835825 C0.7033936323970558 20.213334630429742, 2.7276113571971656 10.056217449158428, 1.7629622779786587 3.9521203078329563" />
</svg>
