<svg xmlns="http://www.w3.org/2000/svg" width="32" height="32" viewBox="0 0 32 32" fill="none" stroke="currentColor" stroke-width="1.6">
  <path d="M2.1294411697016358 1.851094967781505 C2.1294411697016358 1.851094967781505, 2.1294411697016358 1.851094967781505, 2.1294411697016358 1.851094967781505 M2.1294411697016358 1.851094967781505 C2.1294411697016358 1.851094967781505, 2.1294411697016358 1.851094967781505, 2.1294411697016358 1.851094967781505 M2.4820665017968198 12.70865897476046 C4.596740936366913 5.841217834368477, 5.915232579192912 4.86055533792633, 11.531270044118026 0.651674589746803 M1.2611331870114584 11.436620970585631 C5.337234657737057 9.550366306401152, 6.099826541097955 6.17570558732213, 9.779070767208795 1.0403789042021931 M-1.218469941428765 22.99416647293009 C7.333290580658566 16.92112106591344, 13.158843755082355 14.577022165536441, 19.071569533235927 2.3672964682760034 M0.0867748079831756 20.46346533671357 C4.8163419547934625 15.045383253061356, 11.42891140388795 9.64071132134435, 16.055036402456064 3.296540593537906 M3.729374778525525 30.48680182681785 C5.1828202586459895 25.255334714226453, 16.693790595635996 11.88763130238099, 21.756559704347787 3.046828877312766 M1.1393615185037191 27.956727314231852 C7.5064448301919615 23.56764691616366, 14.07436446720341 16.57191241458127, 24.988451043992576 1.6736848709561691 M11.468907727287503 32.38085216568676 C14.678590714955586 24.934697656480918, 22.6841671588571 18.85944400467426, 28.26283606784723 2.5525459512347606 M10.486953337104412 28.4604836376932 C13.885169285885581 26.75663430502083, 22.238471375921 16.948254978979914, 30.09797022203288 6.313302646877828 M17.0844360758896 29.068750205827037 C19.765051462176167 21.30317927388977, 25.354758930274834 16.52394106273691, 33.57590371870972 15.721279174995567 M15.864675305911433 29.99662258979408 C19.901125876137648 26.913274229170213, 25.323643666278812 21.625416850771632, 30.728901277646195 16.06644659766271 M25.259766472958788 29.161329801335327 C26.296241218447935 28.054396442806006, 29.02325778042133 24.80676467670231, 30.02113869604491 25.339028562440806 M24.448414153967814 30.57353978795125 C26.28543536534663 30.030925406730944, 26.325411066319557 27.139038064003728, 31.295715624790866 24.641956058445658 M3.7145268954336643 3.9277694784104824 C6.9606182288378475 4.156111116446555, 12.080004392564296 -1.6305613565072417, 28.412810686975718 2.7846710048615932 M0.7026688735932112 2.5291972178965807 C9.076758057624103 3.2647576736286283, 14.568490597978236 2.1254124449566008, 28.8392514269799 3.505631746724248 M33.073408488184214 -1.4988668598234653 C31.80996316883713 10.550580846890808, 33.1930349490419 10.898547688126566, 32.78109550848603 28.26129012927413 M30.595355419442058 0.401451887562871 C30.748491297103463 7.794846026599409, 28.79555423054844 17.08478748314083, 30.813753692433238 30.70448744483292 M32.105603221803904 29.573119696229696 C26.022027361765502 30.44492044892162, 14.555154535174367 29.35787108387798, 5.672913197427988 29.192953046411276 M28.11314686946571 29.71253597922623 C19.298700906336308 30.623783210776747, 10.540741072967649 30.08085445549339, 3.8778994362801313 30.083688678219914 M0.5587917603552341 29.437064107507467 C3.911916385255754 18.91257741935551, 0.44704962786287084 14.298670412600039, 3.1836006678640842 -0.41216153278946877 M2.4359138291329145 31.996446074917912 C-0.06830318380147204 18.50666731521487, 0.9438056785985829 7.828108724579213, 2.8814811389893293 3.976060153916478" />
</svg>
