<svg xmlns="http://www.w3.org/2000/svg" width="32" height="32" viewBox="0 0 32 32" fill="none" stroke="currentColor" stroke-width="1.6">
  <path d="M2.1294411697016358 1.851094967781505 C2.1294411697016358 1.851094967781505, 2.1294411697016358 1.851094967781505, 2.1294411697016358 1.851094967781505 M2.1294411697016358 1.851094967781505 C2.1294411697016358 1.851094967781505, 2.1294411697016358 1.851094967781505, 2.1294411697016358 1.851094967781505 M2.6904570286428706 11.127780360498713 C3.5043381641973697 8.075111619590816, 5.767771375742685 6.636346690479435, 9.927908168181638 2.37056126431486 M2.059057056464829 11.619723354236472 C5.5129700101128565 7.384327378635522, 7.8358653318386144 3.5464854126197243, 9.699609252817789 1.753617735997945 M1.1717302246029533 20.346380990001933 C4.513912338577562 15.886617363259601, 12.27464701675005 9.495063511764751, 19.734081088713904 2.4625909456940684 M1.1295973487208641 20.55032928567715 C5.762598967372773 15.716858385810983, 11.272073080264448 10.381525191110576, 17.20928139254411 1.8564571335869227 M0.6255751653328474 30.97567340308235 C6.23346231223937 25.046702098097835, 11.005287203588672 18.165628040959717, 23.85729003223711 3.4004864228346214 M2.7405552753001388 29.180561634203354 C5.803799327726703 23.21528594210979, 11.056131391572663 18.01285819663056, 24.705127041704294 1.340770413299726 M8.658627789826484 29.35799098485974 C13.155732512266287 22.447638197590592, 21.547087350678545 17.495651553975513, 31.024546322322703 5.0682397368574765 M9.185696204551848 29.4774381928694 C17.083869728346322 22.689708842117383, 25.161434959078896 12.497552605995299, 29.777247553601182 4.709374780322078 M17.177643999585044 32.30843490865556 C22.0286130546642 23.898049948363372, 27.240179852566193 20.37930515056773, 31.026225659414898 16.211678954747462 M17.348002844617795 29.700243484606126 C21.82323800511689 24.96714967739659, 25.98111922371482 21.308371330562473, 30.755721997819613 14.729430088748183 M25.53636328204425 30.165901165503403 C27.61424454975479 28.201717851727302, 28.614125821052845 26.614985792394638, 29.726155986216146 24.2286424181641 M24.319334803557783 30.484216145427293 C25.6100567050691 29.596160493108233, 26.929194340757654 27.68047852632655, 30.73802137933508 24.083033662171374 M0.5717903431504965 0.8916542176157236 C6.6411161579191695 1.3192823761329056, 11.520384218171241 0.639273666702211, 31.619216030463576 3.17700650729239 M2.0540033103898168 2.793795826844871 C8.711916544102134 2.6384571286290885, 17.046294812299315 2.929439285621047, 30.25887714046985 2.258447620086372 M30.61011273227632 0.751699710264802 C29.46886789958924 8.7609681352973, 31.5434755698964 15.218015262112026, 30.17164326272905 31.391935193911195 M30.893033129163086 1.6021778313443065 C30.990523570775984 7.164890740998089, 30.06111797094345 13.572424626909196, 29.220630538649857 29.05673116724938 M29.158404832705855 29.359679544344544 C22.17479702979326 29.691891848035155, 15.116243777051565 32.061317800469695, 3.509369796141982 28.789429569616914 M29.169720304198563 29.568803968839347 C20.559722874872385 30.88760198235512, 12.034454640187324 30.073208849430085, 2.816849154420197 30.12553301732987 M3.838187640532851 29.1555961612612 C1.7326831317320466 22.122874786704777, 0.5353829956427216 15.956022934243082, 3.7754010017961264 2.381757700815797 M2.653870743699372 30.99466911237687 C1.7159379974752667 21.881817717291412, 1.234101291075349 12.985796575807033, 1.322221708483994 2.9640902308747172" />
</svg>
