<svg xmlns="http://www.w3.org/2000/svg" width="32" height="32" viewBox="0 0 32 32" fill="none" stroke="currentColor" stroke-width="1.6">
  <path d="M2.1294411697016358 1.851094967781505 C2.1294411697016358 1.851094967781505, 2.1294411697016358 1.851094967781505, 2.1294411697016358 1.851094967781505 M2.1294411697016358 1.851094967781505 C2.1294411697016358 1.851094967781505, 2.1294411697016358 1.851094967781505, 2.1294411697016358 1.851094967781505 M3.3156286091810245 11.185144517713475 C2.8180943368220372 7.428033066676137, 5.275402586991162 6.931257547488309, 9.91782254037247 2.7272212880190314 M2.0528286648249408 12.169030505188989 C5.788658840086904 7.260509996831689, 7.32735115101516 3.15913382466393, 9.461224709644775 1.4933342313852012 M0.34233072269810805 20.403024541217462 C2.612663815130439 16.48437528855979, 13.791156660092938 8.697290557567413, 21.721615755147834 2.7484743779482637 M0.25806497093392977 20.8109211325679 C4.9995163939014855 16.369217838565508, 11.389974723721643 11.02301999862241, 16.672016362808247 1.536206753733972 M-0.6858236742451851 32.442288131875856 C5.503637739921252 26.466701229533044, 9.865673724696306 18.665317926808527, 22.15948101590508 4.4614590594001875 M3.5441365456893976 28.85206459411786 C4.474511454559167 22.56946283010567, 10.00739533939855 17.883986258170374, 23.85515503483945 0.34202704033039666 M8.227787977443429 28.289407442378675 C11.372543197594545 20.89419360317203, 22.399303755287043 17.61168233616294, 31.309677085749126 4.615321093725624 M9.281924806894155 28.528301858397995 C17.322268501721876 24.07992344192028, 25.722195589153436 12.61695192273812, 28.815079548306084 3.8975911806548265 M17.45726777067138 34.02748901714114 C22.477322242490562 22.58326279254387, 28.224652959746038 20.92466910682785, 31.37719148153044 17.682878294003153 M17.797985460736882 28.81110616904227 C22.591927477215823 24.243767421449565, 26.593137082358933 21.88953599706074, 30.83618415833987 14.718380562004592 M26.366153709300622 29.579615258007635 C28.351952937036412 28.09272416002364, 28.209377614224934 27.383737839316503, 28.841207856729852 24.497483985333975 M23.932096752327695 30.216245217855416 C25.281347882098316 29.85962843865134, 26.639462480651275 27.50092089927168, 30.86493864296772 24.206266473348524 M-0.856419313699007 -0.21669156476855278 C5.681854686513544 0.4683333493396642, 9.840013177692892 -0.891684069521725, 33.23843206092715 4.35401301458478 M2.1080066207796335 3.587591653689742 C8.030274172872307 3.4742730208858847, 17.305471793934707 4.056237334869802, 30.517754280939698 2.516895240172744 M31.22022546455264 -0.49660057947039604 C29.10988950651139 8.451742540672424, 33.25910484712571 14.295643064379696, 30.343286525458097 32.78387038782239 M31.786066258326173 1.204355662688613 C32.2454738913104 6.584538079798222, 30.386662691645324 13.654362449422479, 28.441261077299714 28.113462334498763 M28.31680966541171 28.71935908868909 C21.26608208529651 29.65476134676486, 14.065463605523107 34.39361325163394, 5.018739592283964 27.578859139233828 M28.339440608397126 29.137607937678695 C20.29610271900892 31.87134963233024, 12.422223218902946 30.242563366480173, 3.633698308840394 30.251066034659743 M5.676375281065702 28.311192322522402 C1.4157491557672621 21.537732258066534, -0.9788511164113878 16.49601123780012, 5.550802003592253 2.7635154016315937 M3.3077414873987436 31.989338224753737 C1.4750904485955836 21.920001945644614, 0.5114170357957484 12.284326173737643, 0.644443416967988 3.9281804617494345" />
</svg>
