<svg xmlns="http://www.w3.org/2000/svg" width="32" height="32" viewBox="0 0 32 32" fill="none" stroke="currentColor" stroke-width="1.6">
  <path d="M2.1294411697016358 1.851094967781505 C2.1294411697016358 1.851094967781505, 2.1294411697016358 1.851094967781505, 2.1294411697016358 1.851094967781505 M2.1294411697016358 1.851094967781505 C2.1294411697016358 1.851094967781505, 2.1294411697016358 1.851094967781505, 2.1294411697016358 1.851094967781505 M2.3131923194309847 11.38300199355303 C3.7262440672602755 8.90286899024213, 5.030422557256034 7.1317559962292805, 10.117977532751718 2.008858426706105 M2.1111514315275626 11.06730200746401 C4.914307725001346 8.272925180029432, 7.185584308839322 4.894694449056683, 9.756354319032143 1.8947089690241814 M1.9702951736758507 19.87503768783398 C6.08097828779345 14.746570931008932, 10.387260081543833 11.807294854820759, 17.342804916351636 3.1704748466568384 M2.3162374357703186 19.853971249892936 C7.082854357751474 14.134026333618905, 12.326660901505779 8.881698706300137, 18.16652386976366 1.9080749985719416 M2.268961001256102 28.853359254499832 C9.054099997111859 21.741837967686127, 15.438267463791085 14.256185755075078, 25.883353095419046 1.4906092781030402 M2.0881911288700934 29.910849309483478 C10.171859331565447 19.427824625470578, 18.4229723274671 9.97592988585491, 25.562092378187266 1.9145277828366325 M9.994644304165037 30.211154621149277 C12.909140083887463 24.623951377163745, 17.19539002512698 20.957441325419488, 30.99340123487941 5.66372376170254 M8.614317887355925 30.474688828511958 C14.583357666637557 23.638781560230797, 21.551994936195534 16.892344008779475, 30.593375885303384 5.04007437734178 M16.91509341554446 30.72919268571315 C20.756699810208854 27.350412122956726, 22.25688955827362 24.15021153267687, 30.95029402931757 14.915962526549544 M17.132016312924307 30.814372108229527 C21.594860370971816 24.929528162249763, 26.88883947633522 18.930677352577526, 31.030318573001544 14.780710695751901 M24.881879247761162 31.16708228662736 C26.167596003422858 29.112452499987906, 28.19407953037567 26.511013601652937, 31.01848240755335 23.51732678625108 M24.90915321112966 30.558568047384128 C26.5344491935965 28.30967597550185, 28.801065814687774 26.088551284027357, 30.57448717092466 24.023259482810545 M1.2858951715752482 1.4458271088078618 C7.120746893621982 1.7021990387979895, 12.360569738410415 1.3621946840826422, 30.809608015231788 2.588503253646195 M2.0270016551949084 2.3968979134224355 C9.052737729717048 2.2698888734076172, 16.91670632148162 2.4153799519035966, 30.129438570234925 2.129223810043186 M30.30505636613816 1.375849855132401 C29.691395522961393 8.915580932609739, 30.728699358114973 15.67920136097819, 30.085821631364524 30.695967596955597 M30.446516564581543 1.8010889156721532 C30.42915509794839 7.455067071598023, 29.96445229803212 13.531455715652555, 29.61031526932493 29.52836558362469 M29.579202416352928 29.679839772172272 C22.629154502041636 29.77820151134394, 15.641633862815794 30.96291448756121, 2.754684898070991 29.394714784808457 M29.58486015209928 29.784401984419674 C20.691532952804117 30.41976457427256, 11.840570350829513 30.012568007810042, 2.4084245772100985 30.062766508664936 M2.9190938202664256 29.5777980806306 C1.878745842790231 22.4154460510239, 1.2800957747455686 15.686028782464563, 2.887700500898063 2.1908788504078984 M2.326935371849686 30.497334556188434 C1.8471653853263708 21.86272560311481, 1.606247032126412 13.336531776841728, 1.661110854241997 2.4820451154373586" />
</svg>
