<svg xmlns="http://www.w3.org/2000/svg" width="32" height="32" viewBox="0 0 32 32" fill="none" stroke="currentColor" stroke-width="1.6">
  <path d="M2.1294411697016358 1.851094967781505 C2.1294411697016358 1.851094967781505, 2.1294411697016358 1.851094967781505, 2.1294411697016358 1.851094967781505 M2.1294411697016358 1.851094967781505 C2.1294411697016358 1.851094967781505, 2.1294411697016358 1.851094967781505, 2.1294411697016358 1.851094967781505 M1.6305566956555624 10.678806730130004 C4.414738544791006 9.024409989856208, 5.933885317839657 5.836132665491207, 9.457982953831413 2.2105393646743 M1.9958627703866143 10.968340072737323 C4.197027951697103 8.708215113892626, 6.636059564114827 6.052293629065908, 10.116900811351696 2.234439726219684 M1.6472400246198333 19.67993760481812 C6.1191507386875 15.733212285824798, 8.7063663809059 12.566159573342915, 17.81071875166108 1.83921906891785 M2.3778681993494786 19.832559979524092 C4.843663572523549 15.97989982693531, 8.339534601693087 13.14501474205613, 17.5265313872691 1.8309525035279188 M2.4916320024743612 29.40525906109617 C8.762884143312586 20.315926905541914, 17.501412460253174 12.369552778731908, 25.440601746469078 1.4402441141583786 M1.8711187542170222 29.610252431085268 C7.1923070271272085 23.347281287685814, 13.02638235772831 17.046018127942034, 25.726427934981224 2.5561897839807735 M8.692918736846538 30.616294589879786 C16.23697530763046 22.595117487716376, 23.42446485979415 13.169694223749907, 31.242072676218367 5.282868634464803 M8.606034458973797 30.62531739478824 C14.049478689063461 24.092393096074602, 20.47190006588123 18.26774031861696, 30.47538910983435 5.700435711557629 M16.576069019862544 29.68258872386543 C20.96089781315833 26.017991289759387, 23.797989593041592 21.77133740494905, 30.525282631978165 15.190801556196954 M16.887350951449108 30.572708338876346 C20.568869243109145 26.637998008549168, 23.76485531335141 22.30543080210101, 30.411965661100815 14.267300335665192 M24.37344378343673 30.57878388208463 C26.31219880014813 28.61814052287662, 29.050458652905284 26.578196427719316, 30.732689643603045 24.11481814116546 M24.916626425682395 30.84810772258914 C26.94308823730057 28.278433516914678, 29.091436819483366 25.742032226331023, 30.51169281918392 24.077106605538436 M1.8572634477168322 1.9638847392052412 C8.28049792908132 2.2047993591986597, 13.640379825606942 1.3114631227217615, 30.20640534348786 1.3923355024307966 M1.8513344367966056 1.7645986089482903 C8.735158486478031 2.3232592489384114, 15.177804214321077 1.7535866346023976, 29.91962571348995 2.252815873362124 M30.536704244092107 1.2505665700882673 C30.104263681974263 8.810387288406492, 30.79579957207665 14.519467573985457, 30.390547754243016 30.130645064637065 M29.79767770972103 1.7007259437814355 C29.716103398632256 11.070044714398682, 29.739634865354745 20.38763714376837, 29.90687684621662 29.85224372241646 M30.052801610901952 30.786559848114848 C23.552769668027757 30.875467674229295, 16.361089241877195 30.331942991707475, 2.836456598713994 30.596476523205638 M29.556573434732854 30.356267989613116 C20.561021968536078 29.70984304951504, 10.593713567219673 30.438378671873362, 2.4389497181400657 29.541844339109957 M2.279395880177617 30.718532053753734 C2.229163895193487 19.010297367349267, 2.4967305164970455 8.257352521643043, 1.5918003339320421 1.7939192336052656 M1.7179569145664573 30.498223037458956 C1.708110256884247 20.67515040207654, 2.2141646880842742 11.257687851227818, 1.9407405694946647 2.488030076958239" />
</svg>
