<svg xmlns="http://www.w3.org/2000/svg" width="32" height="32" viewBox="0 0 32 32" fill="none" stroke="currentColor" stroke-width="1.6">
  <path d="M2.1294411697016358 1.851094967781505 C2.1294411697016358 1.851094967781505, 2.1294411697016358 1.851094967781505, 2.1294411697016358 1.851094967781505 M2.1294411697016358 1.851094967781505 C2.1294411697016358 1.851094967781505, 2.1294411697016358 1.851094967781505, 2.1294411697016358 1.851094967781505 M1.332409662873127 10.423387289189982 C4.872161934809996 8.45762193326655, 5.498878488650684 5.802789902705882, 9.111098788499692 3.7649946371551453 M2.4486764037316817 11.335235272490667 C4.983220159445006 7.92688483458161, 6.535421014579725 6.473453928404134, 10.502301680862764 1.7198118949767052 M1.1227310547615446 19.10745357536115 C8.252350432366374 12.26600239988297, 14.107313112598225 5.757424753582903, 19.046638866103788 -1.0609366672156062 M0.34371005240930685 18.984649030495063 C6.122254385272317 13.21983213878293, 15.976198825032528 6.091568352192132, 16.980506342984338 0.656039833832005 M5.10657709936946 29.420031284404853 C7.210772638284116 24.355429998384356, 18.36015395131752 16.620252261418337, 22.360941671683726 1.1687741504438982 M0.7465240592822369 29.299733234060863 C8.13544361774919 23.353416298274695, 15.512622130868369 13.106114202360965, 25.288507030262885 1.6761981250175104 M6.6072281025213915 34.24368508072463 C15.884514234582696 25.03289840048304, 22.58686164483936 12.656216711137589, 32.83309759470008 5.646708664971056 M8.679410541789027 28.562210968750392 C14.710828518302678 27.722651239840296, 18.804078513094964 20.413466853557807, 30.173634211442685 6.689735447543326 M13.64368361806227 28.506858422798196 C24.308924668188105 23.22330455187092, 30.13506701002199 23.125033128873323, 30.2778353629408 14.663677853506949 M18.764640538149607 30.218347958666364 C21.608670245794155 28.493904136057058, 21.521501797558173 23.19137580714094, 28.889825598686706 14.044347544175531 M25.11934732747154 29.788757986343793 C25.9835803829908 30.08902395645989, 29.806209117786885 25.24936035845104, 30.051242437072325 24.076711696780556 M24.57393805150764 30.937597932807495 C26.37553255381402 29.77397995461154, 26.592716601156983 27.681862316905654, 30.649550152056147 23.988421680799956 M4.858107581734657 5.71107791364193 C9.042472915351391 -0.5355555342137812, 12.720017570257188 0.31775457397103324, 27.65124274790287 1.138684019446373 M2.8106754943728447 2.116788871586323 C11.507032230496407 1.8990306945145132, 16.673962391912937 1.3416497798264029, 31.357005707919598 2.0225269868969917 M30.293633952736855 0.004532560706138611 C26.07985267534852 7.402323387563229, 31.61213979616761 15.994190752506256, 29.12438203394413 27.04516051709652 M30.38142167776823 1.605807550251484 C30.15396518841386 8.779384106397629, 30.342216922193767 15.539149932563305, 31.255014769732952 30.817949779331684 M26.422412887215614 32.292478784918785 C18.888109447062014 33.25968179568648, 13.820618140697478 28.911484335511922, 4.691652789711952 30.771812185645103 M28.452587477862835 30.850143916904926 C22.794803625345228 29.655132843106983, 13.36296429187059 31.48341782197356, 3.5115977451205254 28.334754712879658 M0.23516704142093658 31.74825643002987 C0.16766554102301612 20.05030967742205, 2.308198511451483 7.994681650400164, 2.734402671456337 4.351353868842125 M1.7436553165316582 31.98578429967165 C2.2467872647941114 23.626669260859487, 2.295222714394331 14.512434898316858, 3.5259245559573174 3.9042406156659126" />
</svg>
