<svg xmlns="http://www.w3.org/2000/svg" width="32" height="32" viewBox="0 0 32 32" fill="none" stroke="currentColor" stroke-width="1.6">
  <path d="M2.1294411697016358 1.851094967781505 C2.1294411697016358 1.851094967781505, 2.1294411697016358 1.851094967781505, 2.1294411697016358 1.851094967781505 M2.1294411697016358 1.851094967781505 C2.1294411697016358 1.851094967781505, 2.1294411697016358 1.851094967781505, 2.1294411697016358 1.851094967781505 M1.7958279432064075 10.887197256976055 C4.612291259306762 8.20938853983283, 7.276043135826846 4.844136883637481, 9.577972111672024 1.8071774887379108 M2.2264400926685113 11.166263942190694 C5.076870073118956 7.876998787905666, 7.780391628377184 4.376458810786886, 9.995807826712587 2.154978211828679 M2.293350322731868 20.07013777084984 C6.042805836899399 15.759929576193066, 10.068153782181763 11.048430136298606, 16.87489108104219 2.501730624395827 M2.2546066721911586 19.87538252026178 C5.082396654198231 15.832031741892948, 8.92505537338287 12.784867557203896, 17.806516352258225 1.9851974936159644 M2.0462900000378426 30.301459447903493 C7.2094681264710365 23.049658404612046, 13.239274742888906 18.02472810619995, 26.326104444369015 1.5409744420477018 M2.3052635035231646 29.211446187881688 C8.291938902831935 22.06036756607759, 15.236464555302488 14.89175022419399, 25.39775682139331 2.2728657816924915 M9.296369871483536 29.806014652418767 C15.78676737074506 23.67170203714082, 21.501767292397748 16.783021968148475, 30.744729793540454 6.044578888940277 M8.622601315738054 30.324060262235676 C15.24176372494841 23.185170024386984, 22.756616887246594 15.516947698941989, 30.71136266077242 5.37971304312593 M17.25411781122638 29.775796647560874 C21.307949729019516 25.581938917262423, 26.226685367025908 20.2584113845774, 31.375305426656972 14.641123496902134 M17.376681674399507 31.05603587758271 C20.94464808299775 26.32195235484199, 25.581172301722162 20.826598178881316, 30.648671484902273 14.29412105583861 M24.490314712085592 30.855380691170087 C26.02299320669758 28.73628713340376, 28.237700407846063 27.37335343189113, 30.404275171503652 23.819835431336696 M24.90167999657692 30.71902837217911 C26.575810149892433 28.76139577778445, 28.51069480989219 26.40554768541912, 30.6372815226654 23.96941236008265 M2.7145268954336643 2.9277694784104824 C7.960995858162642 1.3395987183973195, 13.080759651213885 1.552926245443523, 29.412810686975718 1.7846710048615932 M2.202668873593211 2.0291972178965807 C10.370316972956061 2.076518497876823, 17.655608428642154 1.9371732692047954, 30.3392514269799 2.005631746724248 M30.073408488184214 1.5011331401765347 C29.138527363948523 9.020774576812983, 30.521599144153296 16.838935147970915, 29.781095508486032 29.26129012927413 M30.095355419442058 1.901451887562871 C30.002206797264517 9.440089428797364, 30.049269730709494 16.87527428753674, 30.313753692433238 30.20448744483292 M29.105603221803904 30.573119696229696 C21.705539336055516 30.68093534845859, 14.922178483754395 29.59388598341495, 2.672913197427988 30.192953046411276 M29.61314686946571 30.21253597922623 C21.822043937072156 29.989686099030077, 13.087427134439345 30.44675734374672, 2.3778994362801313 29.583688678219914 M1.5587917603552341 30.437064107507467 C1.528327790386975 20.220594734698537, 2.0634610329940917 9.914705043286087, 2.1836006678640842 2.5878384672105312 M1.9359138291329145 30.496446074917912 C1.9862205137684943 23.050300804153082, 1.9983293761685492 15.415375702455638, 2.3814811389893293 2.476060153916478" />
</svg>
