<svg xmlns="http://www.w3.org/2000/svg" width="32" height="32" viewBox="0 0 32 32" fill="none" stroke="currentColor" stroke-width="1.6">
  <path d="M2.1294411697016358 1.851094967781505 C2.1294411697016358 1.851094967781505, 2.1294411697016358 1.851094967781505, 2.1294411697016358 1.851094967781505 M2.1294411697016358 1.851094967781505 C2.1294411697016358 1.851094967781505, 2.1294411697016358 1.851094967781505, 2.1294411697016358 1.851094967781505 M2.14792107188014 11.17461146670698 C5.103233022321737 7.945950989470283, 6.837348078423281 4.54050933475313, 9.99798837491111 2.412220302642494 M1.8805741092456656 10.869378138010639 C4.079748178392861 9.14350504775582, 6.08653481939033 6.609892809075135, 9.87744730367125 1.9741704834151863 M1.324184875563816 19.484837521802262 C6.15732318958155 16.71985364064066, 9.025472680267967 13.325024291865066, 18.278632586970527 2.5079632911788616 M2.4394989629286385 19.811148709155248 C6.844121276076793 14.281894418661265, 11.741140129815996 9.24184589115237, 17.886538904774536 1.753830008483896 M2.7143030036926206 29.95715886769251 C10.607516013953411 19.008106468615996, 19.700405181155357 10.601010427607033, 24.99785039751911 1.389878950213717 M1.654046379563951 29.309655552687058 C9.072227455860721 20.7147383470788, 17.212890129892923 12.13019778960295, 25.890763491775182 2.1978517851249144 M9.391193169528039 31.021434558610295 C15.359348020772861 23.547366827739303, 21.11808759252338 17.34411358102092, 31.490744117557323 4.902013507227066 M8.597751030591668 30.775945961064522 C13.515599711489365 24.546004631918414, 19.391805195566924 19.643136628454446, 30.357402334365315 5.360797045773479 M16.237044624180626 30.635984762017706 C21.1650958161078 24.616684258518042, 25.33908962780956 19.323577079177234, 30.10027123463876 15.465640585844364 M16.642685589973908 30.331044569523165 C21.21908153108321 25.176687617912933, 26.072522487964473 20.34062377775321, 30.793612749200086 14.753889975578483 M24.7650083191123 30.8904854775419 C26.456801596873408 28.094305889460763, 29.006837775434903 25.71585659748112, 30.44689687965274 23.81230949607984 M24.924099640235134 30.687647397794155 C26.901727281004643 28.276713714632077, 29.38180782427895 25.425035824939258, 30.44889846744318 24.13095372826633 M2.428631723858416 2.4819423696026206 C7.44024896454066 2.5673996795993297, 12.92018991280347 1.1207315613608808, 29.60320267174393 2.1961677512153983 M1.6756672183983028 2.132299304474145 C8.417579243239016 2.3766296244692056, 14.43890210716054 2.0917933173011987, 29.709812856744975 2.376407936681062 M30.768352122046053 1.1252832850441337 C30.51713184098713 8.705193644203247, 30.862899786038323 13.35973378699273, 30.695273877121508 29.565322532318532 M30.148838854860514 1.6003629718907177 C30.14305169931613 9.085022357199342, 29.654817432677373 17.043818571884188, 30.20343842310831 30.17612186120823 M30.526400805450976 29.893279924057424 C24.476384834013878 29.972733837114646, 17.080544620938596 29.700971495853736, 2.918228299356997 29.79823826160282 M29.528286717366427 29.928133994806558 C19.43051098426804 30.13992152475752, 9.346856783609837 30.00418933593668, 2.469474859070033 30.02092216955498 M1.6396979400888085 29.859266026876867 C2.5795819475967434 21.205148683674633, 1.7133652582485228 14.02867626082152, 2.295900166966021 1.3969596168026328 M2.1089784572832286 30.499111518729478 C1.5690551284421235 19.48757520103827, 1.8220823440421372 9.178843925613908, 2.2203702847473323 2.4940150384791195" />
</svg>
