<svg xmlns="http://www.w3.org/2000/svg" width="32" height="32" viewBox="0 0 32 32" fill="none" stroke="currentColor" stroke-width="1.6">
  <path d="M2.1294411697016358 1.851094967781505 C2.1294411697016358 1.851094967781505, 2.1294411697016358 1.851094967781505, 2.1294411697016358 1.851094967781505 M2.1294411697016358 1.851094967781505 C2.1294411697016358 1.851094967781505, 2.1294411697016358 1.851094967781505, 2.1294411697016358 1.851094967781505 M1.2820665017968196 11.50865897476046 C5.304536755093541 7.544738235944289, 6.2631866758418955 4.578026288180267, 10.331270044118027 1.851674589746803 M1.8611331870114582 10.836620970585631 C5.118777429178127 8.235498350499736, 7.592221533521038 5.473169375644318, 10.379070767208795 1.640378904202193 M0.781530058571235 20.99416647293009 C5.453056014023607 14.199273449064673, 11.676573579190077 11.397368886378338, 17.071569533235927 0.3672964682760034 M1.0867748079831756 19.46346533671357 C7.143395593652084 12.566060696080907, 15.298795008067637 5.386565914544663, 17.055036402456064 2.296540593537906 M1.729374778525525 28.48680182681785 C8.58656243631466 21.68818489574535, 17.824737372612514 10.333559880049311, 23.756559704347787 1.046828877312766 M2.139361518503719 28.956727314231852 C10.510178011066612 20.29136162537771, 18.735357729028905 11.389167484120936, 25.988451043992576 2.673684870956169 M9.468907727287503 30.38085216568676 C18.213318520742558 21.0093665576039, 24.13754467102141 12.726958899056886, 30.26283606784723 4.552545951234761 M9.486953337104412 29.4604836376932 C15.612083603904349 24.01380282055738, 23.10712362150518 14.892004253319225, 31.09797022203288 5.313302646877828 M15.084436075889599 31.068750205827037 C21.647203072295902 23.39456420637115, 26.958546218737318 18.935547516550297, 31.575903718709718 13.721279174995567 M16.864675305911433 30.99662258979408 C19.795335742295237 27.220484183683723, 21.90058988802719 23.44796528579431, 29.728901277646195 15.066446597662713 M24.35976647295879 30.061329801335326 C27.200215348441144 29.105268075159742, 29.854073697428454 25.941795206003977, 30.92113869604491 24.439028562440807 M24.898414153967813 31.02353978795125 C25.784606976816278 29.658995167401834, 26.757667484669618 27.629048108080383, 30.845715624790866 24.19195605844566 M1.7145268954336643 1.9277694784104824 C8.960744105279446 2.492854917421937, 14.080256145447493 0.7061824444681406, 30.412810686975718 0.7846710048615932 M1.7026688735932112 1.5291972178965807 C8.674611029401422 2.6656380857527258, 14.764196541532874 1.5262928570806982, 29.8392514269799 2.505631746724248 M31.073408488184214 0.5011331401765347 C30.21924526639283 9.040645423531533, 31.6023170465976 13.878676841408014, 30.781095508486032 30.26129012927413 M29.595355419442058 1.401451887562871 C29.38034904718399 10.709927160665393, 29.427411980628968 19.914949751272797, 29.813753692433238 29.70448744483292 M30.105603221803904 31.573119696229696 C23.583198019862174 31.887927898690105, 15.67749585136771 30.800878533646465, 3.672913197427988 31.192953046411276 M29.11314686946571 30.71253597922623 C20.973148583248257 29.31173465490341, 10.889636426791547 30.768805899620055, 2.8778994362801313 29.083688678219914 M2.558791760355234 31.437064107507467 C2.395122087821364 18.481916524469852, 2.930255330428481 7.437348622828722, 1.1836006678640842 1.5878384672105312 M1.4359138291329145 30.996446074917912 C1.383958664983511 20.521211811527607, 2.3960675273835657 10.857197717204688, 1.8814811389893293 2.976060153916478" />
</svg>
