<svg xmlns="http://www.w3.org/2000/svg" width="32" height="32" viewBox="0 0 32 32" fill="none" stroke="currentColor" stroke-width="1.6">
  <path d="M5.714864549040794 0.22664674818515773 C9.665397433936596 0.891396784335375, 11.711837911605835 -0.19661715075373665, 26.590745648741724 3.8832104116678243 M8.086405296623706 3.2700733229517938 C11.134263014793397 3.0440866930782797, 16.864464788138868 3.5096581442654133, 24.414203424751758 2.413516192138195 M24 2 C30.737238097935915 3.220225464552641, 27.503399420529604 2.593428384512663, 28.10027675703168 10.459338676184416 M23.381548810750246 4.742643725126982 C31.20145094599575 -2.3613858392462133, 34.344153746031225 5.045474673248828, 27.878543945215643 8.394779504276812 M28.142871484160423 7.349411907792091 C30.071246391087772 11.73487073034048, 26.790585094243287 18.762263756990432, 32.506844624876976 27.09688743650913 M29.536731357872487 7.1593758627772335 C31.27859521046281 13.33421970307827, 28.877866746336224 16.697251714766026, 28.862036199867724 24.54940381497145 M30 24 C28.945519376546144 31.16582525894046, 29.55107431486249 29.908252727240324, 20.678881216794252 28.27521587535739 M33.26739661768079 24.502132069319487 C29.13594969715923 32.22783157322556, 26.05787117090076 29.499290550686418, 22.17968583907932 30.815138197876514 M26.840641602873802 30.610812321305275 C19.38967574983835 29.63571772262454, 15.28032061457634 32.221983572691684, 11.182941159605981 28.95271534025669 M22.91555473357439 31.542544369399547 C18.49816052019596 28.27518352612853, 13.587133799493312 30.80976742848754, 8.608874101936816 28.961774592101573 M8 30 C2.9511181600391865 31.424703251570463, 5.850656557828188 31.042702924460173, -0.44666166231036186 25.19489861652255 M10.312866616994143 26.38446892425418 C1.755039360187948 30.304955632425845, 2.513332827948034 31.488937879540025, 5.104359074495733 24.916884983517228 M0.8120811551809308 25.969441738724708 C3.17387659355998 21.103512640297414, 2.0046776990592483 13.34006462097168, 0.4479415029287337 6.9842878729105 M3.51467229872942 25.14653196781874 C2.2486528293788433 18.703434324264528, 3.4688533203303815 14.521376414597034, 1.7340140059590339 6.990081648528576 M2 8 C0.26477663591504097 3.0329922549426556, 5.569138336926699 1.8766617886722088, 5.578140307217836 0.4107697121798992 M0.3412009961903095 8.113287102431059 C5.814823450706898 2.1427890727296472, 8.57132973279804 2.6575318941846486, 3.9539796670898797 3.3525100955739617 M8 2 C8 2, 8 2, 8 2 M8 2 C8 2, 8 2, 8 2" />
</svg>
