<svg xmlns="http://www.w3.org/2000/svg" width="32" height="32" viewBox="0 0 32 32" fill="none" stroke="currentColor" stroke-width="1.6">
  <path d="M9.143243032693864 3.484431165456772 C11.777075481414796 0.9524479144811628, 14.208179658651353 1.2937719577550886, 23.060497099161147 1.6554736077785492 M8.324270197749138 2.046715548634529 C13.17276921570301 2.087540171146393, 16.60949760377407 1.8645878052711486, 24.542802283167838 2.0090107947587965 M24 2 C27.824825398623943 2.1468169763684273, 29.00226628035307 2.395618923008442, 29.400184504687786 6.306225784122944 M22.921032540500164 3.161762483417988 C26.300967297330498 1.3924094405025245, 30.59610249735415 5.463649782165884, 29.352362630143762 7.496519669517875 M29.295247656106948 8.099607938528061 C28.543265292048456 14.109149158000946, 30.62282442748547 17.613313180208205, 30.071229749917983 25.53125829100609 M30.491154238581657 7.706250575184822 C29.713213897943497 11.907295712828637, 30.246061588525773 14.767132964730262, 30.041357466578482 23.566269209980966 M30 24 C31.29701291769743 28.110550172626972, 28.367382876574993 31.93883515149355, 22.452587477862835 30.850143916904926 M31.511597745120525 22.334754712879658 C31.723966464772822 26.98522104881704, 29.005247447267173 28.899527033790946, 25.08645722605288 29.776758798584343 M24.293761068582533 30.94054154753685 C18.5718598484993 29.035012438893318, 15.077699106931686 29.69252300560474, 9.58862743973732 29.835143560171126 M24.61036982238293 30.761696246266364 C18.424710503220556 29.778279193639754, 12.443296179175377 30.40133512854576, 7.605916067957878 29.57451639473438 M8 30 C3.967412106692791 28.949802167713642, 3.900437705218792 28.02846861630678, 3.7022255584597588 24.129932411015034 M6.208577744662762 28.256312616169453 C3.270026240125299 29.436637088283895, 3.108888551965356 29.55929191969335, 0.2362393829971552 22.311256655678154 M0.6747207701206206 22.64629449248314 C1.1622051483392717 19.55993404388428, 1.4494058853387832 16.675227648019792, 1.4986276686191558 7.856191915273667 M1.6764481991529465 23.431021311879157 C2.484872052669525 20.415651795268058, 2.2316723799705502 16.77430876791477, 1.5560093373060226 8.12672109901905 M2 8 C1.5098510906100273 4.021994836628437, 5.712758891284466 2.584441192448139, 8.385426871478558 2.940513141453266 M1.560800664126873 7.408858068287373 C3.7765489671379324 1.9951927151530984, 4.747553155198693 0.13835459612309942, 9.135986444726587 0.601673397049308 M8 2 C8 2, 8 2, 8 2 M8 2 C8 2, 8 2, 8 2" />
</svg>
