<svg xmlns="http://www.w3.org/2000/svg" width="32" height="32" viewBox="0 0 32 32" fill="none" stroke="currentColor" stroke-width="1.6">
  <path d="M8.571621516346932 2.7422155827283863 C11.488681599497795 1.4686489863693715, 14.304377546906473 1.6393110080063342, 23.530248549580573 1.8277368038892745 M8.162135098874568 2.0233577743172644 C12.869645147025585 2.0728446067869664, 16.871269880235197 1.9613684238493443, 24.27140114158392 2.0045053973793983 M24 2 C27.91241269931197 2.0734084881842136, 29.501133140176535 3.197809461504221, 29.700092252343893 7.153112892061472 M23.460516270250082 2.580881241708994 C27.15048364866525 1.6962047202512622, 30.298051248677076 4.731824891082942, 29.67618131507188 7.7482598347589375 M29.647623828053476 8.04980396926403 C29.279516495019195 13.607143250107766, 30.319296062737703 17.911793932318687, 30.03561487495899 24.765629145503045 M30.24557711929083 7.853125287592411 C29.83368216112256 11.638130433857441, 30.1001060064137 14.752531637251376, 30.02067873328924 23.783134604990483 M30 24 C30.648506458848715 28.055275086313486, 28.183691438287497 30.969417575746775, 23.226293738931417 30.425071958452463 M30.755798872560263 23.16737735643983 C30.86198323238641 27.49261052440852, 28.502623723633587 29.449763516895473, 24.54322861302644 29.88837939929217 M24.146880534291267 30.470270773768426 C18.931339272856714 29.543106531351807, 14.829668250679969 29.87186181470752, 8.79431371986866 29.917571780085563 M24.305184911191464 30.380848123133184 C18.504958741366863 29.913218018263578, 12.806855069100857 30.22474598571658, 7.802958033978939 29.78725819736719 M8 30 C3.9837060533463955 29.47490108385682, 2.950218852609396 28.01423430815339, 2.8511127792298794 24.064966205507517 M7.104288872331381 29.128156308084726 C3.6350131200626494 29.718318544141948, 2.5544442759826778 28.779645959846675, 1.1181196914985776 23.155628327839075 M1.3373603850603102 23.323147246241568 C1.6109129504859447 19.80422597229481, 1.7545133189857007 16.386131724715234, 1.7493138343095778 7.928095957636833 M1.8382240995764731 23.71551065593958 C2.2286544428765773 20.28785481005907, 2.10205460652709 16.547212208807466, 1.7780046686530113 8.063360549509525 M2 8 C1.7549255453050137 4.0109974183142185, 4.856379445642233 2.2922205962240696, 8.192713435739279 2.470256570726633 M1.7804003320634365 7.704429034143686 C2.888274483568966 2.9975963575765494, 4.3737765775993465 1.0691772980615497, 8.567993222363294 1.300836698524654 M8 2 C8 2, 8 2, 8 2 M8 2 C8 2, 8 2, 8 2" />
</svg>
