<svg xmlns="http://www.w3.org/2000/svg" width="32" height="32" viewBox="0 0 32 32" fill="none" stroke="currentColor" stroke-width="1.6">
  <path d="M10.286486065387727 4.968862330913544 C12.353863245248796 -0.06480428755283363, 14.015783882141115 0.6178437989950178, 22.120994198322297 1.3109472155570985 M8.648540395498276 2.0934310972690584 C13.779017353057862 2.0587822574377057, 16.08595305085182 1.6128775256872177, 25.08560456633568 2.0180215895175935 M24 2 C27.649650797247887 2.2936339527368546, 28.00453256070614 0.7912378460168839, 28.800369009375572 4.612451568245888 M21.842065081000328 4.323524966835976 C24.601934594660996 0.7848188810050489, 31.192204994708298 6.927299564331769, 28.704725260287525 6.99303933903575 M28.590495312213896 8.199215877056123 C27.054995188117026 15.11316097378731, 31.21411345899105 17.016351675987245, 30.14245949983597 27.062516582012176 M30.982308477163315 7.4125011503696445 C29.518126947283747 12.445626270771026, 30.583822328448296 14.796335619688033, 30.082714933156968 23.13253841996193 M30 24 C32.59402583539486 28.221100345253944, 28.734765753149986 33.8776703029871, 20.90517495572567 31.700287833809853 M33.02319549024105 20.669509425759315 C33.447932929545644 25.970442097634077, 30.01049489453435 27.799054067581892, 26.17291445210576 29.553517597168685 M24.58752213716507 31.8810830950737 C17.85290099978447 27.967623630166052, 15.573760819435119 29.282644763588905, 11.17725487947464 29.670287120342255 M25.220739644765853 31.52339249253273 C18.264214026927945 29.46024470150471, 11.716178399324418 30.70635657131672, 7.211832135915756 29.149032789468766 M8 30 C3.934824213385582 27.899604335427284, 5.800875410437584 28.056937232613564, 5.4044511169195175 24.259864822030067 M4.417155489325523 26.512625232338905 C2.5400524802505973 28.873274176567794, 4.217777103930712 31.1185838393867, -1.5275212340056896 20.622513311356307 M-0.6505584597587588 21.29258898496628 C0.20516879141330713 19.071350187063217, 0.7795702654123304 17.253419494628908, 0.9972553372383115 7.712383830547333 M1.352896398305893 22.862042623758317 C3.024870439171791 20.671245765686034, 2.518471093773842 17.22850188612938, 1.1120186746120453 8.253442198038101 M2 8 C1.0197021812200546 4.043989673256874, 7.425517782568932 3.1688823848962784, 8.770853742957115 3.8810262829065323 M1.121601328253746 6.817716136574745 C5.553097934275865 -0.009614569693803254, 5.495106310397387 -1.7232908077538012, 10.271972889453172 -0.796653205901384 M8 2 C8 2, 8 2, 8 2 M8 2 C8 2, 8 2, 8 2" />
</svg>
