<svg xmlns="http://www.w3.org/2000/svg" width="32" height="32" viewBox="0 0 32 32" fill="none" stroke="currentColor" stroke-width="1.6">
  <path d="M7.428716137260198 1.5566616870462895 C10.816511199623347 1.7714867397770284, 13.728283160179855 1.4994832560047506, 24.64768641218543 2.4708026029169563 M8.021601324155927 2.3175183307379483 C11.952233860269189 2.2046334550902245, 16.553452410176398 2.321026317887008, 24.10355085618794 2.1033790480345487 M24 2 C28.68430952448398 2.3050563661381602, 29.3758498551324 3.6483570961281657, 29.52506918925792 8.614834669046104 M23.84538720268756 2.6856609312817454 C28.800362736498936 0.9096535401884467, 31.086038436507806 4.2613686683122065, 29.46963598630391 8.098694876069203 M29.535717871040106 7.837352976948023 C30.049637371264396 13.605357437580823, 29.229472047053278 20.033845449239013, 30.626711156219244 24.774221859127284 M29.88418283946812 7.789843965694308 C30.345261620841917 12.428597825393082, 29.74507950481027 16.364398727938536, 29.715509049966933 24.13735095374286 M30 24 C29.736379844136536 28.791456314735115, 28.387768578715622 29.97706318181008, 23.169720304198563 29.568803968839347 M30.816849154420197 24.12553301732987 C29.78398742428981 29.05695789330639, 27.514467792725192 29.874822637671606, 23.54492145976983 30.203784549469127 M24.71016040071845 30.15270308032632 C19.598504454642534 29.887329898513855, 15.322251188009977 30.53389636103064, 8.795735289901495 29.738178835064172 M23.7288886833936 30.385636092349888 C18.97871905602515 29.624913513697685, 14.105141301825643 30.258559489287435, 8.152218525484205 29.740443648025394 M8 30 C3.7377795400097966 30.356175812892616, 2.962664139457047 28.760675731115043, 1.3883345844224095 24.298724654130638 M8.578216654248536 29.096117231063545 C3.4387598400469868 30.07623890810646, 2.1283332069870085 28.872234469885008, 2.776089768623933 24.22922124587931 M1.7030202887952326 24.492360434681178 C2.3181847128644586 19.853169479221105, 2.0258849892392754 14.489598793536425, 1.6119853757321834 7.746071968227625 M2.3786680746823547 24.286632991954683 C2.061490832157433 18.7158911075443, 2.3665409548953176 13.710409156605602, 1.9335035014897586 7.747520412132144 M2 8 C1.5661941589787602 3.758248063735664, 4.392284584231675 1.9691654471680522, 7.394535076804459 1.6026924280449748 M1.5853002490475774 8.028321775607765 C2.9537058626767245 3.5356972681824117, 5.14283243319951 2.164382973546162, 6.98849491677247 2.3381275238934904 M8 2 C8 2, 8 2, 8 2 M8 2 C8 2, 8 2, 8 2" />
</svg>
