<svg xmlns="http://www.w3.org/2000/svg" width="32" height="32" viewBox="0 0 32 32" fill="none" stroke="currentColor" stroke-width="1.6">
  <path d="M9.37162151634693 3.542215582728386 C10.688465811312199 3.7637989281117914, 13.503945970535277 -0.8655390502512457, 22.730248549580573 2.6277368038892748 M6.962135098874569 2.4233577743172647 C12.244754338264466 3.0946955643594265, 15.221488262712956 2.1832193814218046, 23.07140114158392 3.2045053973793984 M24 2 C28.91241269931197 5.073408488184214, 26.501133140176535 6.197809461504221, 26.700092252343893 6.153112892061472 M26.460516270250082 5.580881241708994 C26.00048364866525 0.5462047202512621, 31.448051248677075 1.2818248910829428, 26.22618131507188 11.198259834758936 M27.247623828053474 5.64980396926403 C29.703748797029256 14.578290243446826, 30.74352836474776 15.854087918996811, 30.835614874958992 27.165629145503043 M29.84557711929083 6.653125287592411 C29.359531736820937 15.111406567692756, 29.625955582112073 20.499083904922006, 29.620678733289243 24.18313460499048 M30 24 C29.648506458848715 29.055275086313486, 31.183691438287497 29.969417575746775, 20.226293738931417 29.425071958452463 M33.75579887256026 24.16737735643983 C29.71198323238641 26.34261052440852, 27.352623723633588 32.899763516895476, 23.39322861302644 33.33837939929217 M24.946880534291267 28.070270773768424 C22.463225249946117 32.01190590754152, 14.69344020485878 30.740661190897228, 11.19431371986866 27.517571780085564 M24.705184911191463 31.580848123133183 C18.966053506731985 29.10506117537618, 17.329044599831104 31.01658914282918, 8.20295803397894 28.58725819736719 M8 30 C0.9837060533463955 30.47490108385682, 5.950218852609396 29.01423430815339, 3.8511127792298794 27.064966205507517 M6.104288872331381 26.128156308084726 C0.1850131200626497 33.16831854414195, -0.8955557240173215 32.22964595984668, -0.031880308501422316 24.305628327839077 M3.7373603850603105 22.52314724624157 C2.711292197853327 18.767837546765804, 4.454892566353083 11.913354873657227, -0.6506861656904221 5.5280959576368325 M1.4382240995764732 23.31551065593958 C0.6962176097929477 17.96781144142151, 2.1696177734434605 15.507125471532344, 2.9780046686530115 7.663360549509525 M2 8 C-1.2450744546949863 1.0109974183142185, 1.856379445642233 -0.7077794037759304, 7.192713435739279 1.470256570726633 M-1.2195996679365635 10.704429034143686 C6.338274483568966 6.447596357576549, 5.523776577599347 2.21917729806155, 9.717993222363294 2.450836698524654 M8 2 C8 2, 8 2, 8 2 M8 2 C8 2, 8 2, 8 2" />
</svg>
