<svg xmlns="http://www.w3.org/2000/svg" width="32" height="32" viewBox="0 0 32 32" fill="none" stroke="currentColor" stroke-width="1.6">
  <path d="M7.8858107581734656 1.971107791364193 C11.744340799748898 2.154324493184686, 14.752188773453236 1.439655504003167, 24.165124274790287 1.5138684019446373 M7.881067549437285 1.8116788871586322 C11.834822573512792 2.2564223033934834, 15.435634940117597 1.8006842119246724, 23.93570057079196 2.202252698689699 M24 2 C27.456206349655986 2.536704244092107, 29.250566570088267 4.0989047307521105, 29.350046126171947 8.076556446030736 M24.23025813512504 2.790440620854497 C28.150241824332625 2.4231023601256307, 29.57402562433854 3.7909124455414713, 29.26309065753594 8.44912991737947 M29.423811914026736 7.624901984632015 C29.2197582475096 12.003571625053883, 29.73964803136885 15.755896966159344, 29.617807437479495 24.782814572751523 M30.322788559645414 7.726562643796205 C30.136841080561283 13.21906521692872, 30.27005300320685 17.976265818625688, 30.21033936664462 23.69156730249524 M30 24 C30.824253229424357 27.527637543156743, 28.59184571914375 30.984708787873387, 23.11314686946571 30.71253597922623 M30.87789943628013 23.083688678219914 C31.005991616193207 28.32130526220426, 28.826311861816794 30.299881758447736, 24.84661430651322 30.519189699646084 M23.673440267145633 29.83513538688421 C20.265669636428356 30.151553265675904, 15.814834125339983 29.51593090735376, 8.79715685993433 29.55878589004278 M23.95259245559573 30.39042406156659 C19.452479370683434 30.13660900913179, 15.403427534550428 30.29237299285829, 7.701479016989469 29.693629098683594 M8 30 C3.4918530266731977 29.23745054192841, 2.975109426304698 27.507117154076695, 1.9255563896149397 24.53248310275376 M8.05214443616569 29.064078154042363 C3.242506560031325 30.434159272070975, 1.7022221379913391 28.964822979923337, 2.134059845749289 23.00281416391954 M2.068680192530155 24.061573623120786 C1.4254564752429721 18.302112986147403, 2.2972566594928505 14.193065862357615, 1.474656917154789 7.564047978818417 M2.1191120497882365 24.05775532796979 C1.8943272214382887 20.343927405029536, 1.831027303263545 17.273606104403733, 2.089002334326506 8.231680274754762 M2 8 C1.3774627726525068 3.5054987091571093, 3.9281897228211164 1.6461102981120348, 8.59635671786964 2.7351282853633165 M1.3902001660317183 8.352214517071843 C3.0191372417844833 4.073798178788275, 3.6118882887996735 0.959588649030775, 7.708996611181647 1.075418349262327 M8 2 C8 2, 8 2, 8 2 M8 2 C8 2, 8 2, 8 2" />
</svg>
