<svg xmlns="http://www.w3.org/2000/svg" width="32" height="32" viewBox="0 0 32 32" fill="none" stroke="currentColor" stroke-width="1.6">
  <path d="M6.857432274520397 1.113323374092579 C10.432806611061096 1.4943359358608723, 13.056134743988515 0.9503289683163165, 25.29537282437086 2.941605205833912 M8.043202648311853 2.6350366614758967 C11.679576911777259 2.4656551283597947, 16.657123202830554 2.6984408539533615, 24.20710171237588 2.2067580960690973 M24 2 C29.368619048967957 2.6101127322763205, 28.751699710264802 3.2967141922563314, 29.05013837851584 9.229669338092208 M23.690774405375123 3.371321862563491 C29.600725472997873 -0.18069291962310663, 32.17207687301561 4.522737336624414, 28.93927197260782 8.197389752138406 M29.07143574208021 7.674705953896046 C30.06744896903634 12.981861868500708, 28.4271183206141 19.609984885156152, 31.253422312438488 25.548443718254568 M29.76836567893624 7.579687931388617 C30.664910423457624 12.730471784621479, 29.46454619139433 16.475349723547698, 29.431018099933862 24.274701907485724 M30 24 C29.472759688273072 29.58291262947023, 28.775537157431245 29.954126363620162, 22.339440608397126 29.137607937678695 M31.633698308840394 24.251066034659743 C29.567974848579617 30.11391578661278, 27.02893558545038 29.74964527534321, 23.08984291953966 30.407569098938257 M25.4203208014369 30.305406160652637 C19.528894886374474 29.79625932916999, 15.308274330198763 31.08939225420356, 9.59147057980299 29.476357670128344 M23.457777366787194 30.771272184699775 C18.818532877415418 29.193709395229817, 13.932472134381532 30.461001346409322, 8.304437050968408 29.48088729605079 M8 30 C3.4755590800195932 30.71235162578523, 3.925328278914094 29.521351462230086, 0.7766691688448191 24.597449308261275 M9.156433308497071 28.19223446212709 C2.877519680093974 30.152477816212922, 2.256666413974017 29.744468939770012, 3.5521795372478664 24.458442491758614 M1.4060405775904654 24.984720869362356 C2.6116538612544535 20.269950532913207, 2.0270544140040876 14.106420736014844, 1.2239707514643667 7.49214393645525 M2.75733614936471 24.57326598390937 C2.123654039502144 18.711738846451045, 2.7337542849779126 13.98073157593608, 1.867007002979517 7.495040824264288 M2 8 C1.1323883179575205 3.516496127471328, 4.784569168463349 1.9383308943361044, 6.789070153608918 1.2053848560899496 M1.1706004980951548 8.05664355121553 C3.907411725353449 3.0713945363648234, 6.28566486639902 2.3287659470923243, 5.976989833544939 2.676255047786981 M8 2 C8 2, 8 2, 8 2 M8 2 C8 2, 8 2, 8 2" />
</svg>
