<svg xmlns="http://www.w3.org/2000/svg" width="32" height="32" viewBox="0 0 32 32" fill="none" stroke="currentColor" stroke-width="1.6">
  <path d="M8.685810758173465 2.771107791364193 C10.944268870353698 2.8981119786202907, 13.952044914662837 0.583442989438772, 23.365124274790286 2.3138684019446374 M7.4810675494372845 2.2116788871586324 C11.893192303925753 2.581885042786598, 15.152374400943518 2.126146951317787, 23.53570057079196 2.602252698689699 M24 2 C28.456206349655986 3.536704244092107, 28.250566570088267 5.0989047307521105, 28.350046126171947 7.076556446030736 M25.23025813512504 3.790440620854497 C27.000241824332626 1.273102360125631, 30.724025624338537 2.6409124455414714, 28.113090657535942 9.599129917379468 M28.62381191402674 6.824901984632016 C29.915816323012116 13.927287289500235, 30.43570610687137 17.20332829505205, 30.417807437479496 25.582814572751523 M29.922788559645415 7.326562643796206 C29.688303474485874 14.376823928207159, 29.821515397131446 19.891783241182566, 29.81033936664462 24.091567302495243 M30 24 C29.824253229424357 28.527637543156743, 29.59184571914375 29.984708787873387, 22.11314686946571 29.71253597922623 M31.87789943628013 24.083688678219914 C29.855991616193204 27.17130526220426, 27.676311861816792 31.449881758447738, 23.69661430651322 31.669189699646086 M24.473440267145634 29.035135386884214 C21.442964962124826 30.99875310972333, 15.769424776732922 30.363130751401187, 9.59715685993433 28.75878589004278 M24.352592455595733 30.79042406156659 C19.606177625805138 29.624569798409937, 16.91082404479384 30.58033378213644, 8.101479016989469 29.293629098683596 M8 30 C2.4918530266731977 30.23745054192841, 3.975109426304698 28.507117154076695, 2.9255563896149397 25.53248310275376 M7.05214443616569 28.064078154042363 C2.0925065600313246 31.584159272070973, 0.5522221379913392 30.11482297992334, 0.9840598457492888 24.152814163919537 M2.8686801925301553 23.261573623120785 C2.310551287084818 18.48998351097107, 3.182351471334696 12.168806912004946, 0.6746569171547889 6.764047978818416 M1.7191120497882366 23.657755327969788 C1.4012180131673813 18.503912948817014, 2.1379180949926377 14.793577191978693, 2.4890023343265057 7.8316802747547625 M2 8 C0.37746277265250683 2.5054987091571093, 2.9281897228211164 0.6461102981120348, 7.596356717869639 1.7351282853633165 M0.39020016603171825 9.352214517071843 C4.169137241784483 5.223798178788274, 4.761888288799673 2.109588649030775, 8.858996611181647 2.225418349262327 M8 2 C8 2, 8 2, 8 2 M8 2 C8 2, 8 2, 8 2" />
</svg>
