<svg xmlns="http://www.w3.org/2000/svg" width="32" height="32" viewBox="0 0 32 32" fill="none" stroke="currentColor" stroke-width="1.6">
  <path d="M7.543243032693863 1.884431165456772 C13.376931622624397 2.807597856223583, 15.807891941070556 -0.051078100502491175, 24.660497099161148 0.05547360777854915 M7.5242701977491375 1.246715548634529 C11.68950867652893 3.069391128718853, 14.44297652542591 1.2464387628436087, 23.74280228316784 2.809010794758797 M24 2 C25.824825398623943 4.146816976368427, 27.00226628035307 4.395618923008442, 27.400184504687786 8.306225784122944 M24.921032540500164 5.161762483417988 C28.6009672973305 3.692409440502524, 28.29610249735415 3.163649782165885, 27.05236263014376 9.796519669517874 M27.69524765610695 6.499607938528061 C26.687497594058513 11.556580486893655, 28.767056729495526 14.108175837993624, 28.471229749917985 27.131258291006088 M31.291154238581658 6.906250575184822 C30.799063473641873 14.222813135385513, 31.33191116422415 18.598167809844018, 30.841357466578483 22.766269209980965 M30 24 C33.29701291769743 26.110550172626972, 30.367382876574993 33.93883515149355, 20.452587477862835 32.850143916904926 M33.511597745120525 20.334754712879658 C34.02396646477282 29.28522104881704, 31.305247447267174 31.199527033790947, 27.38645722605288 32.07675879858434 M22.693761068582536 29.34054154753685 C20.926450499892233 30.343811815083026, 14.986880409717559 27.801322381794453, 11.18862743973732 28.235143560171128 M23.810369822382928 31.561696246266365 C18.732107013463974 30.290122350752352, 15.458089199662208 30.913178285658358, 6.805916067957878 28.774516394734384 M8 30 C1.967412106692791 26.949802167713642, 5.900437705218792 26.02846861630678, 1.7022255584597588 26.129932411015034 M8.208577744662762 26.256312616169453 C0.970026240125299 31.736637088283896, 0.8088885519653561 31.859291919693348, 2.536239382997155 20.011256655678153 M2.274720770120621 24.246294492483138 C-0.25741560429334687 16.735675093531608, 3.2297851327061653 15.826709747314453, -0.10137233138084412 6.256191915273666 M2.4764481991529466 24.231021311879157 C1.4724352195858954 19.935622882843017, 1.219235546886921 18.21425094306469, 2.3560093373060225 8.926721099019051 M2 8 C-0.4901489093899727 2.021994836628437, 3.712758891284466 0.5844411924481392, 10.385426871478558 4.940513141453266 M-0.439199335873127 9.408858068287373 C6.076548967137933 4.295192715153098, 2.4475531551986935 -2.1616454038769, 6.835986444726586 -1.6983266029506918 M8 2 C8 2, 8 2, 8 2 M8 2 C8 2, 8 2, 8 2" />
</svg>
