<svg xmlns="http://www.w3.org/2000/svg" width="32" height="32" viewBox="0 0 32 32" fill="none" stroke="currentColor" stroke-width="1.6">
  <path d="M8.342905379086734 2.3855538956820963 C11.072170399874448 2.457162246592343, 14.176094386726618 1.2998277520015835, 23.682562137395145 2.1569342009723185 M7.740533774718642 2.105839443579316 C11.717411286756397 2.308211151696742, 15.1178174700588 2.080342105962336, 23.76785028539598 2.3011263493448495 M24 2 C28.228103174827993 2.7683521220460534, 29.125283285044134 4.549452365376055, 29.175023063085973 7.538278223015368 M24.61512906756252 2.8952203104272485 C27.500120912166313 1.6365511800628156, 30.36201281216927 3.3204562227707357, 29.05654532876797 8.799564958689734 M29.31190595701337 7.412450992316008 C29.9898791237548 13.601785812526941, 30.249824015684425 17.87794848307967, 30.208903718739748 24.79140728637576 M29.961394279822706 7.663281321898102 C29.84842054028064 14.00953260846436, 29.915026501603425 19.588132909312844, 29.90516968332231 24.04578365124762 M30 24 C29.91212661471218 28.26381877157837, 28.795922859571874 29.992354393936694, 23.056573434732854 29.856267989613116 M30.938949718140066 24.041844339109957 C29.927995808096604 27.58565263110213, 27.838155930908396 30.72494087922387, 23.84830715325661 30.83459484982304 M24.236720133572817 29.517567693442107 C20.93283481821418 30.495776632837952, 16.30741706266999 30.17796545367688, 8.798578429967165 29.37939294502139 M24.176296227797867 30.395212030783295 C19.926239685341717 29.848304504565895, 16.701713767275212 30.32618649642915, 8.050739508494734 29.646814549341798 M8 30 C3.245926513336599 30.118725270964205, 2.987554713152349 28.253558577038348, 2.46277819480747 24.76624155137688 M7.526072218082845 29.03203907702118 C3.0462532800156623 30.79207963603549, 1.2761110689956696 29.05741148996167, 1.4920299228746443 24.07640708195977 M2.4343400962650774 23.63078681156039 C2.1327282376214862 18.3510564930737, 2.568628329746425 12.296532931178808, 1.3373284585773946 7.382023989409208 M1.8595560248941183 23.828877663984894 C1.7271636107191444 18.771963702514768, 2.0955136516317725 14.436803052201867, 2.2445011671632527 7.915840137377382 M2 8 C1.1887313863262534 3.2527493545785546, 3.4640948614105582 1.3230551490560174, 7.79817835893482 1.8675641426816583 M1.1951000830158591 8.676107258535922 C3.0845686208922416 4.611899089394138, 4.3809441443998365 2.0547943245153872, 8.429498305590823 2.1127091746311635 M8 2 C8 2, 8 2, 8 2 M8 2 C8 2, 8 2, 8 2" />
</svg>
