<svg xmlns="http://www.w3.org/2000/svg" width="32" height="32" viewBox="0 0 32 32" fill="none" stroke="currentColor" stroke-width="1.6">
  <path d="M7.771621516346931 1.942215582728386 C12.288537740707397 2.3562239572405814, 15.104089829325677 0.9268859788775443, 24.330248549580574 1.0277368038892747 M7.762135098874569 1.6233577743172645 C11.786384607851504 2.5237700855731964, 15.104748801887034 1.6122939026355743, 23.87140114158392 2.404505397379398 M24 2 C26.91241269931197 3.0734084881842136, 28.501133140176535 4.197809461504221, 28.700092252343893 8.153112892061472 M24.460516270250082 3.580881241708994 C28.30048364866525 2.846204720251262, 29.148051248677074 3.5818248910829427, 28.52618131507188 8.898259834758937 M28.847623828053475 7.249803969264031 C28.391632646024227 11.854574579000474, 29.431412213742732 15.206656590104105, 29.23561487495899 25.565629145503046 M30.645577119290827 7.453125287592411 C30.33660694897175 13.553647856414319, 30.603030794262885 18.18356648236513, 30.420678733289243 23.38313460499048 M30 24 C31.648506458848715 27.055275086313486, 29.183691438287497 31.969417575746775, 22.226293738931417 31.425071958452463 M31.755798872560263 22.16737735643983 C32.01198323238641 28.642610524408518, 29.65262372363359 30.59976351689547, 25.69322861302644 31.03837939929217 M23.346880534291266 29.670270773768426 C20.48592992424965 30.23750621944666, 15.538849553465841 28.96626150280237, 9.59431371986866 29.117571780085562 M23.905184911191462 30.780848123133183 C19.21235525161028 30.209139596819877, 15.421648089587688 30.52066756427288, 7.402958033978939 29.387258197367192 M8 30 C2.9837060533463955 28.47490108385682, 3.950218852609396 27.01423430815339, 1.8511127792298794 25.064966205507517 M8.10428887233138 28.128156308084726 C2.4850131200626495 30.86831854414195, 1.404444275982678 29.929645959846674, 2.2681196914985775 22.005628327839077 M2.1373603850603105 24.12314724624157 C0.8611025741696354 17.779967021942138, 2.6047029426693915 14.737613824009895, 0.9493138343095779 7.128095957636833 M2.238224099576473 24.11551065593958 C1.7624360263347625 20.20782589763403, 1.6358361899852754 17.587154383957387, 2.1780046686530112 8.463360549509526 M2 8 C0.7549255453050137 3.0109974183142185, 3.856379445642233 1.2922205962240696, 9.192713435739279 3.470256570726633 M0.7804003320634365 8.704429034143686 C4.038274483568967 4.147596357576549, 3.223776577599347 -0.08082270193844998, 7.417993222363293 0.1508366985246541 M8 2 C8 2, 8 2, 8 2 M8 2 C8 2, 8 2, 8 2" />
</svg>
